<svg xmlns="http://www.w3.org/2000/svg" xmlns:xlink="http://www.w3.org/1999/xlink" viewBox="0 0 2614.93 4183.52"><defs><style>.cls-1{fill:none;}.cls-2{clip-path:url(#clip-path);}.cls-3{fill:#f4725c;}.cls-3,.cls-4,.cls-5{opacity:0.4;}.cls-4{fill:#f7a467;}.cls-5{fill:#9dc3bb;}.cls-6{fill:#f4c85e;opacity:0.1;}.cls-7,.cls-8{fill:#4f5f6e;}.cls-8{opacity:0.8;}</style><clipPath id="clip-path"><rect class="cls-1" x="1134.86" y="439.71" width="1278.8" height="3627.02"/></clipPath></defs><title>Asset 7</title><g id="Layer_2" data-name="Layer 2"><g id="Layer_1-2" data-name="Layer 1"><g class="cls-2"><polygon class="cls-3" points="1136.88 3378.72 1080.74 3575.69 1335.09 3577.8 1136.88 3378.72"/><polygon class="cls-4" points="1085.12 3113.21 1158.97 3243.63 1266.8 3114.73 1085.12 3113.21"/><polygon class="cls-5" points="1326.83 3280.18 1415.76 3314.7 1424.78 3198.14 1326.83 3280.18"/><polygon class="cls-6" points="1124.9 2417.22 1142.8 2598.26 1292.82 2516.42 1124.9 2417.22"/><polygon class="cls-4" points="1352.89 2375.25 1485.25 2445.54 1506.92 2278.89 1352.89 2375.25"/><polygon class="cls-3" points="1772.47 3148.59 1582.58 3071.83 1553.45 3324.52 1772.47 3148.59"/><polygon class="cls-7" points="2181.73 2935.79 2298.62 2888.59 2201.85 2768.15 2181.73 2935.79"/><polygon class="cls-4" points="2088.55 3039.11 1951.03 3098.69 2067.75 3219.6 2088.55 3039.11"/><polygon class="cls-5" points="2534.53 2797.37 2484.57 2598.73 2263.3 2724.18 2534.53 2797.37"/><polygon class="cls-5" points="2350.41 3412.79 2256.14 3427.41 2306.66 3532.84 2350.41 3412.79"/><polygon class="cls-6" points="1579.09 3322.21 1553.29 3502.3 1718.49 3458.61 1579.09 3322.21"/><polygon class="cls-4" points="1222.76 4056.58 1302.44 4183.52 1404.33 4049.87 1222.76 4056.58"/><polygon class="cls-6" points="2393.16 3715.31 2232.48 3800.65 2365.17 3908.33 2393.16 3715.31"/><polygon class="cls-3" points="2314.72 3998.73 2164.94 3993.43 2218.37 4152.76 2314.72 3998.73"/><polygon class="cls-5" points="1863.09 4047.19 1844.43 3953.64 1741.27 4008.64 1863.09 4047.19"/><polygon class="cls-6" points="1424.94 3733.28 1255.33 3667.48 1260.59 3838.28 1424.94 3733.28"/><polygon class="cls-6" points="2614.93 596.1 2436.36 630.9 2531.91 772.59 2614.93 596.1"/><polygon class="cls-3" points="2496.83 602.78 2408.35 418.06 2216.46 585.02 2496.83 602.78"/><polygon class="cls-7" points="2396.56 788.64 2319.15 732.9 2281.14 843.46 2396.56 788.64"/><polygon class="cls-4" points="2597.92 887.2 2456.19 838.47 2460.85 1006.46 2597.92 887.2"/><polygon class="cls-4" points="1979.74 2064.94 1838.01 2016.21 1842.68 2184.2 1979.74 2064.94"/><polygon class="cls-3" points="2401.66 2228.62 2498.7 2048.25 2250.7 1991.69 2401.66 2228.62"/><polygon class="cls-6" points="1885.08 2560.66 1869.44 2379.4 1718.41 2459.35 1885.08 2560.66"/><polygon class="cls-5" points="1495.3 2128.89 1471.91 2036.41 1371.68 2096.59 1495.3 2128.89"/><polygon class="cls-6" points="1685.64 1774.35 1670 1593.09 1518.97 1673.04 1685.64 1774.35"/><polygon class="cls-7" points="1517.39 1536.75 1581.04 1465.7 1475.15 1416.16 1517.39 1536.75"/><polygon class="cls-4" points="1337 1722.5 1400.51 1586.75 1232.97 1573.54 1337 1722.5"/><polygon class="cls-3" points="1057.74 1854.99 1226.78 1970.65 1309.36 1730.07 1057.74 1854.99"/><polygon class="cls-7" points="952.51 1784.3 1047.43 1793.83 1025.01 1679.09 952.51 1784.3"/><polygon class="cls-6" points="732.93 1158.87 632.91 1006.91 538.14 1149.11 732.93 1158.87"/><polygon class="cls-4" points="326.2 1257.7 317.43 1108.09 163.81 1176.22 326.2 1257.7"/><polygon class="cls-5" points="218.47 956.27 153.88 886.07 94.38 986.7 218.47 956.27"/><polygon class="cls-6" points="194.79 769.15 94.77 617.18 0 759.38 194.79 769.15"/><polygon class="cls-3" points="200.39 579.25 299.63 469.34 135.27 386.87 200.39 579.25"/><polygon class="cls-4" points="2168.54 124.35 2026.82 75.63 2031.48 243.62 2168.54 124.35"/><polygon class="cls-5" points="1946.54 167.01 1857.07 200.1 1927.56 293.37 1946.54 167.01"/><polygon class="cls-6" points="1730.39 0 1551.82 34.8 1647.36 176.48 1730.39 0"/><polygon class="cls-7" points="1575.01 192.54 1497.6 136.79 1459.6 247.35 1575.01 192.54"/><polygon class="cls-5" points="2401.86 320.09 2312.39 353.17 2382.88 446.44 2401.86 320.09"/><polygon class="cls-3" points="1940.29 615.77 2037.32 435.4 1789.33 378.85 1940.29 615.77"/><polygon class="cls-8" points="636.28 751.41 721.66 793.96 741.36 678.72 636.28 751.41"/><polygon class="cls-4" points="730.6 519.42 647.01 436.31 592.68 556.8 730.6 519.42"/><polygon class="cls-5" points="1632.08 430.56 1715.05 383.49 1630.45 302.8 1632.08 430.56"/><polygon class="cls-5" points="1331.36 256.63 1266.76 186.43 1207.26 287.06 1331.36 256.63"/><polygon class="cls-6" points="1099.9 1880.22 1117.8 2061.26 1267.82 1979.42 1099.9 1880.22"/><polygon class="cls-5" points="1919.5 2308.91 1991 2372.06 2039.78 2265.81 1919.5 2308.91"/><polygon class="cls-4" points="2299.27 2445.07 2161.75 2504.65 2278.47 2625.56 2299.27 2445.07"/></g></g></g></svg>