<svg xmlns="http://www.w3.org/2000/svg" viewBox="0 0 1645.41 3804.67"><defs><style>.cls-1{fill:#f7a467;}.cls-1,.cls-4,.cls-5{opacity:0.4;}.cls-2{fill:#f4c85e;opacity:0.1;}.cls-3{fill:#4f5f6e;}.cls-4{fill:#9dc3bb;}.cls-5{fill:#f4725c;}</style></defs><title>Asset 23</title><g id="Layer_2" data-name="Layer 2"><g id="Layer_1-2" data-name="Layer 1"><polygon class="cls-1" points="1512.8 2734.37 1438.94 2864.78 1331.12 2735.88 1512.8 2734.37"/><polygon class="cls-2" points="1473.02 2038.37 1455.11 2219.41 1305.1 2137.57 1473.02 2038.37"/><polygon class="cls-3" points="416.19 2556.95 299.3 2509.74 396.06 2389.3 416.19 2556.95"/><polygon class="cls-4" points="63.39 2418.52 113.35 2219.89 334.62 2345.33 63.39 2418.52"/><polygon class="cls-1" points="1375.15 3677.74 1295.47 3804.67 1193.59 3671.02 1375.15 3677.74"/><polygon class="cls-5" points="283.19 3619.88 432.97 3614.58 379.55 3773.91 283.19 3619.88"/><polygon class="cls-5" points="101.09 223.93 189.57 39.21 381.45 206.18 101.09 223.93"/><polygon class="cls-3" points="201.36 409.8 278.76 354.05 316.77 464.61 201.36 409.8"/><polygon class="cls-1" points="0 508.35 141.73 459.62 137.06 627.61 0 508.35"/><polygon class="cls-5" points="196.26 1849.77 99.22 1669.4 347.21 1612.84 196.26 1849.77"/><polygon class="cls-2" points="912.28 1395.5 927.91 1214.24 1078.94 1294.19 912.28 1395.5"/><polygon class="cls-3" points="1080.53 1157.9 1016.87 1086.86 1122.77 1037.32 1080.53 1157.9"/><polygon class="cls-5" points="1540.17 1476.15 1371.13 1591.8 1288.55 1351.22 1540.17 1476.15"/><polygon class="cls-3" points="1645.41 1405.45 1550.49 1414.98 1572.91 1300.24 1645.41 1405.45"/><polygon class="cls-5" points="657.63 236.93 560.59 56.55 808.59 0 657.63 236.93"/></g></g></svg>