<svg xmlns="http://www.w3.org/2000/svg" viewBox="0 0 31.31 26.28"><defs><style>.cls-1{fill:#4f5f6e;}</style></defs><title>Asset 9</title><g id="Layer_2" data-name="Layer 2"><g id="Layer_1-2" data-name="Layer 1"><g id="WhaRV3.tif"><path class="cls-1" d="M11.88.08a2.63,2.63,0,0,1,.13,1q0,8.72,0,17.42c0,2.42,0,4.84,0,7.25a.85.85,0,0,1,0,.32c-.05.14-.09.12-.17,0l-1.2-1.44L4.72,17.62a.59.59,0,0,0-.51-.23h-3a1.49,1.49,0,0,1-.47-.07c-.06,0-.1,0-.12-.1A11.27,11.27,0,0,1,0,14.53,21.19,21.19,0,0,1,0,12,12.37,12.37,0,0,1,.69,9a.33.33,0,0,1,.36-.21H2.87a9.52,9.52,0,0,1,1.31,0,.57.57,0,0,0,.56-.27L11.65.47A3.07,3.07,0,0,0,11.88.08Z"/><path class="cls-1" d="M19,26.26a1.77,1.77,0,0,1-.73,0c-.06,0-.1,0-.09-.11a8.8,8.8,0,0,0,0-1.36c0-.35,0-.71,0-1.06s.06-.31.31-.33a10,10,0,0,0,9-5.95,8.61,8.61,0,0,0,.9-3.44A10.37,10.37,0,0,0,22,3.6a9.7,9.7,0,0,0-3.27-.72,2,2,0,0,1-.49-.1c-.06,0-.08,0-.07-.1a7,7,0,0,0,0-1.21c0-.38,0-.76,0-1.15s.05-.33.35-.32c.53,0,1.06.06,1.58.15A13,13,0,0,1,29.74,7a12.67,12.67,0,0,1,1.54,5.34,12.78,12.78,0,0,1-2.44,8.54,12.83,12.83,0,0,1-8.79,5.31A6.51,6.51,0,0,1,19,26.26Z"/><path class="cls-1" d="M25.44,13.23a8.87,8.87,0,0,1-8.27,8.82,1.25,1.25,0,0,1-.54-.05c-.05,0-.11,0-.09-.1a5.91,5.91,0,0,0,0-1c0-.34,0-.68,0-1s.06-.31.3-.32a6.31,6.31,0,0,0,5.66-4.05,5.74,5.74,0,0,0,.39-1.57,6.46,6.46,0,0,0-5.61-7.14,1.94,1.94,0,0,1-.68-.11c-.05,0-.11,0-.09-.11a7.49,7.49,0,0,0,0-1.16c0-.3,0-.59,0-.89s.07-.28.29-.27a8.92,8.92,0,0,1,8.24,6.58A8.58,8.58,0,0,1,25.44,13.23Z"/><path class="cls-1" d="M15.83,13.11V9.18a.66.66,0,0,1,0-.2c0-.12.07-.21.24-.19a4.25,4.25,0,0,1,3.54,2.34,4.31,4.31,0,0,1-.85,5.24,4.2,4.2,0,0,1-2.52,1.13c-.14,0-.27-.06-.4-.07s-.06-.06,0-.11a1.29,1.29,0,0,0,0-.39Z"/></g></g></g></svg>