<svg xmlns="http://www.w3.org/2000/svg" xmlns:xlink="http://www.w3.org/1999/xlink" viewBox="0 0 4170.93 5124.29"><defs><style>.cls-1{fill:none;}.cls-2{clip-path:url(#clip-path);}.cls-3{fill:#f4725c;}.cls-13,.cls-3,.cls-4,.cls-5{opacity:0.4;}.cls-4{fill:#f7a467;}.cls-5{fill:#9dc3bb;}.cls-6{fill:#f4c85e;}.cls-11,.cls-6{opacity:0.1;}.cls-7,.cls-8{fill:#4f5f6e;}.cls-10,.cls-8{opacity:0.8;}.cls-9{clip-path:url(#clip-path-2);}.cls-12{fill:#1b1464;}</style><clipPath id="clip-path"><rect class="cls-1" x="201.27" y="1361.71" width="1278.8" height="3627.02" transform="translate(1681.35 6350.44) rotate(-180)"/></clipPath><clipPath id="clip-path-2"><rect class="cls-1" x="1701.27" y="1361.71" width="1278.8" height="3627.02" transform="translate(4681.35 6350.44) rotate(-180)"/></clipPath></defs><title>Asset 2</title><g id="Layer_2" data-name="Layer 2"><g id="Layer_1-2" data-name="Layer 1"><g class="cls-2"><polygon class="cls-3" points="1478.05 4300.72 1534.2 4497.69 1279.85 4499.81 1478.05 4300.72"/><polygon class="cls-4" points="1529.81 4035.21 1455.96 4165.63 1348.13 4036.73 1529.81 4035.21"/><polygon class="cls-5" points="1288.1 4202.19 1199.17 4236.7 1190.15 4120.14 1288.1 4202.19"/><polygon class="cls-6" points="1490.04 3339.22 1472.13 3520.26 1322.12 3438.42 1490.04 3339.22"/><polygon class="cls-4" points="1262.05 3297.25 1129.68 3367.54 1108.02 3200.89 1262.05 3297.25"/><polygon class="cls-3" points="842.46 4070.59 1032.36 3993.83 1061.48 4246.52 842.46 4070.59"/><polygon class="cls-7" points="433.2 3857.79 316.31 3810.59 413.08 3690.15 433.2 3857.79"/><polygon class="cls-4" points="526.38 3961.11 663.9 4020.69 547.19 4141.6 526.38 3961.11"/><polygon class="cls-5" points="80.41 3719.37 130.37 3520.73 351.64 3646.18 80.41 3719.37"/><polygon class="cls-5" points="264.53 4334.79 358.79 4349.41 308.27 4454.84 264.53 4334.79"/><polygon class="cls-6" points="1035.85 4244.21 1061.65 4424.3 896.44 4380.61 1035.85 4244.21"/><polygon class="cls-4" points="1392.17 4978.58 1312.49 5105.52 1210.61 4971.87 1392.17 4978.58"/><polygon class="cls-6" points="221.78 4637.31 382.45 4722.65 249.76 4830.33 221.78 4637.31"/><polygon class="cls-3" points="300.21 4920.73 449.99 4915.43 396.56 5074.76 300.21 4920.73"/><polygon class="cls-5" points="751.85 4969.19 770.5 4875.64 873.67 4930.64 751.85 4969.19"/><polygon class="cls-6" points="1189.99 4655.28 1359.61 4589.48 1354.35 4760.28 1189.99 4655.28"/><polygon class="cls-6" points="0 1518.1 178.57 1552.9 83.03 1694.59 0 1518.1"/><polygon class="cls-3" points="118.11 1524.78 206.59 1340.06 398.47 1507.03 118.11 1524.78"/><polygon class="cls-7" points="218.38 1710.64 295.78 1654.9 333.79 1765.46 218.38 1710.64"/><polygon class="cls-4" points="17.02 1809.2 158.75 1760.47 154.08 1928.46 17.02 1809.2"/><polygon class="cls-4" points="635.19 2986.94 776.92 2938.21 772.26 3106.2 635.19 2986.94"/><polygon class="cls-3" points="213.28 3150.62 116.24 2970.25 364.23 2913.69 213.28 3150.62"/><polygon class="cls-6" points="729.86 3482.66 745.49 3301.4 896.52 3381.35 729.86 3482.66"/><polygon class="cls-5" points="1119.64 3050.89 1143.03 2958.41 1243.26 3018.59 1119.64 3050.89"/><polygon class="cls-6" points="929.3 2696.35 944.93 2515.09 1095.96 2595.04 929.3 2696.35"/><polygon class="cls-7" points="1097.55 2458.75 1033.89 2387.7 1139.79 2338.16 1097.55 2458.75"/><polygon class="cls-4" points="1277.93 2644.5 1214.43 2508.75 1381.96 2495.54 1277.93 2644.5"/><polygon class="cls-3" points="1557.19 2776.99 1388.15 2892.65 1305.57 2652.07 1557.19 2776.99"/><polygon class="cls-7" points="1662.42 2706.3 1567.51 2715.83 1589.92 2601.09 1662.42 2706.3"/><polygon class="cls-6" points="1882 2080.87 1982.02 1928.91 2076.79 2071.11 1882 2080.87"/><polygon class="cls-4" points="2288.74 2179.7 2297.5 2030.09 2451.13 2098.22 2288.74 2179.7"/><polygon class="cls-5" points="2396.46 1878.27 2461.05 1808.07 2520.55 1908.7 2396.46 1878.27"/><polygon class="cls-6" points="2420.14 1691.15 2520.17 1539.19 2614.93 1681.38 2420.14 1691.15"/><polygon class="cls-3" points="2414.54 1501.25 2315.3 1391.34 2479.67 1308.87 2414.54 1501.25"/><polygon class="cls-4" points="446.39 1046.35 588.12 997.63 583.45 1165.62 446.39 1046.35"/><polygon class="cls-5" points="668.39 1089.01 757.87 1122.1 687.38 1215.37 668.39 1089.01"/><polygon class="cls-6" points="884.55 922 1063.12 956.8 967.58 1098.48 884.55 922"/><polygon class="cls-7" points="1039.92 1114.54 1117.33 1058.79 1155.34 1169.35 1039.92 1114.54"/><polygon class="cls-5" points="213.07 1242.09 302.55 1275.17 232.05 1368.44 213.07 1242.09"/><polygon class="cls-3" points="674.65 1537.78 577.61 1357.4 825.6 1300.85 674.65 1537.78"/><polygon class="cls-8" points="1978.66 1673.41 1893.28 1715.96 1873.58 1600.72 1978.66 1673.41"/><polygon class="cls-4" points="1884.34 1441.42 1967.92 1358.32 2022.26 1478.8 1884.34 1441.42"/><polygon class="cls-5" points="982.86 1352.56 899.88 1305.49 984.48 1224.8 982.86 1352.56"/><polygon class="cls-5" points="1283.58 1178.63 1348.17 1108.43 1407.67 1209.07 1283.58 1178.63"/><polygon class="cls-6" points="1515.04 2802.22 1497.13 2983.26 1347.12 2901.42 1515.04 2802.22"/><polygon class="cls-5" points="695.44 3230.91 623.94 3294.06 575.15 3187.81 695.44 3230.91"/><polygon class="cls-4" points="315.66 3367.07 453.18 3426.65 336.47 3547.56 315.66 3367.07"/></g><g class="cls-9"><g class="cls-10"><g class="cls-11"><path class="cls-12" d="M3104.33,2960.84,3283.46,3038l-156.79,92.27-22.34-169.42m0-2a2,2,0,0,0-1.21.41,2,2,0,0,0-.77,1.85l22.33,169.42a2,2,0,0,0,1.11,1.54,2,2,0,0,0,.88.2,2,2,0,0,0,1-.27l156.79-92.28a2,2,0,0,0-.22-3.56L3105.12,2959a2,2,0,0,0-.79-.17Z"/></g><g class="cls-13"><path class="cls-12" d="M3026.05,3160.72l56.15,197-254.35,2.12,198.2-199.09m0-2a2,2,0,0,0-1.42.58l-198.2,199.09a2,2,0,0,0,1.42,3.42h0l254.35-2.12a2,2,0,0,0,1.91-2.55l-56.15-197a2,2,0,0,0-1.42-1.39,2.14,2.14,0,0,0-.5-.06Z"/></g><path class="cls-12" d="M2664.33,3176.51l-21,93L2541.57,3212l122.76-35.44m0-2a1.77,1.77,0,0,0-.56.08L2541,3210a2,2,0,0,0-.43,3.67l101.73,57.61a2.06,2.06,0,0,0,1,.26,2.1,2.1,0,0,0,.81-.17,2,2,0,0,0,1.14-1.39l21-93.05a2,2,0,0,0-2-2.44Zm0,4Z"/><g class="cls-13"><path class="cls-12" d="M2836.15,2964.14l97.95,82.05-88.93,34.51-9-116.56m0-2a2,2,0,0,0-.91.22,2,2,0,0,0-1.08,1.93l9,116.57a2,2,0,0,0,.93,1.53,1.93,1.93,0,0,0,1.06.31,2,2,0,0,0,.73-.13l88.93-34.52a2,2,0,0,0,.56-3.4l-97.95-82a2,2,0,0,0-1.29-.47Z"/></g><g class="cls-11"><path class="cls-12" d="M3038,2199.22l-17.91,181-150-81.84,167.92-99.2m0-2a2.08,2.08,0,0,0-1,.27L2869.1,2296.7a2,2,0,0,0,.06,3.48l150,81.84a2,2,0,0,0,1,.24,2,2,0,0,0,2-1.8L3040,2199.41a2,2,0,0,0-.92-1.88,2,2,0,0,0-1.07-.31Zm0,4Z"/></g><g class="cls-11"><path class="cls-12" d="M1946.4,2856.51l176.89,42.54-101.62,137.39-75.27-179.93m0-2a2,2,0,0,0-1.85,2.77l75.27,179.93a2,2,0,0,0,1.61,1.21l.24,0a2,2,0,0,0,1.61-.82l101.61-137.38a2,2,0,0,0-1.14-3.14l-176.88-42.54a2.59,2.59,0,0,0-.47,0Z"/></g><g class="cls-13"><path class="cls-12" d="M2578.36,2856.83l29.12,252.69-219-175.94,189.9-76.75m0-2a2.12,2.12,0,0,0-.75.14l-189.9,76.76a2,2,0,0,0-1.22,1.56,2,2,0,0,0,.72,1.85l219,175.94a2,2,0,0,0,1.25.44,2.09,2.09,0,0,0,1-.25,2,2,0,0,0,1-2l-29.13-252.69a2,2,0,0,0-1-1.49,2,2,0,0,0-1-.28Z"/></g><g class="cls-13"><path class="cls-12" d="M1760.93,2997.74l28.86,165.56-158.06-89.61,129.2-76m0-2a1.93,1.93,0,0,0-1,.28L1630.72,3072a2,2,0,0,0,0,3.46l158,89.61a2.06,2.06,0,0,0,1,.26,2,2,0,0,0,1.15-.37,2,2,0,0,0,.82-2L1762.9,2997.4a2,2,0,0,0-1.13-1.47,1.91,1.91,0,0,0-.84-.19Z"/></g><path class="cls-12" d="M2536.74,3373.72l78.09,54.8-91.94,72.22,13.85-127m0-2a2,2,0,0,0-.83.18,2,2,0,0,0-1.16,1.6l-13.85,127a2,2,0,0,0,1,2,2,2,0,0,0,1,.25,2,2,0,0,0,1.23-.43l91.94-72.22a2,2,0,0,0-.09-3.21l-78.08-54.8a2,2,0,0,0-1.15-.36Z"/><g class="cls-13"><path class="cls-12" d="M2314.5,3215.92l92.59,117.85-160.2,50.79,67.61-168.64m0-2-.28,0a2,2,0,0,0-1.57,1.23L2245,3383.81a2,2,0,0,0,1.85,2.75,2.16,2.16,0,0,0,.61-.1l160.19-50.78a2,2,0,0,0,1-3.14l-92.58-117.86a2,2,0,0,0-1.58-.76Z"/></g><g class="cls-13"><path class="cls-12" d="M2078.66,3443.85l152.92,203.26-277.92-41,125-162.25m0-2a2,2,0,0,0-1.59.78l-125,162.25a2,2,0,0,0-.27,2,2,2,0,0,0,1.57,1.23l277.92,41a1.43,1.43,0,0,0,.29,0,2,2,0,0,0,1.6-3.21l-152.93-203.25a2,2,0,0,0-1.58-.8Z"/></g><path class="cls-12" d="M2536.8,4098.41l78.08,54.8L2523,4225.43l13.85-127m0-2a2,2,0,0,0-.83.18,2,2,0,0,0-1.16,1.6l-13.85,127a2,2,0,0,0,1,2,2.06,2.06,0,0,0,1,.25,2,2,0,0,0,1.23-.43l91.94-72.22a2,2,0,0,0,.76-1.63,2,2,0,0,0-.85-1.58l-78.08-54.8a2,2,0,0,0-1.15-.36Z"/><g class="cls-13"><path class="cls-12" d="M1851,3775.43l-53.43,159.33-96.35-154,149.78-5.3m0-2h-.07l-149.78,5.3a2,2,0,0,0-1.62,3.06l96.35,154a2,2,0,0,0,1.69.94h.24a2,2,0,0,0,1.66-1.35l53.43-159.34a2,2,0,0,0-1.9-2.63Zm0,4h0Z"/></g><g class="cls-13"><path class="cls-12" d="M1961.41,3904.6l75.94,57.73L1942.74,4031l18.67-126.4m0-2a2,2,0,0,0-2,1.71l-18.67,126.4a2,2,0,0,0,.94,2,2,2,0,0,0,1,.28,1.93,1.93,0,0,0,1.17-.38l94.62-68.67a2,2,0,0,0,.82-1.6,2,2,0,0,0-.79-1.61L1962.62,3903a2,2,0,0,0-1.21-.41Z"/></g><g class="cls-11"><path class="cls-12" d="M2992.6,3448.48l-5.25,170.8-164.36-105,169.61-65.8m0-2a2,2,0,0,0-.72.13l-169.61,65.81a2,2,0,0,0-1.27,1.66,2,2,0,0,0,.91,1.89l164.36,105a2,2,0,0,0,1.08.31,1.91,1.91,0,0,0,.93-.23,2,2,0,0,0,1.07-1.71l5.25-170.8a2,2,0,0,0-.84-1.69,2,2,0,0,0-1.16-.37Zm0,4h0Z"/></g><g class="cls-13"><path class="cls-12" d="M3061.53,3966.06l-1.85,95.38-111.25-35.94,113.1-59.44m0-2a2,2,0,0,0-.93.23l-113.11,59.44a2,2,0,0,0,.32,3.68l111.25,35.93a1.87,1.87,0,0,0,.62.1,2,2,0,0,0,2-2l1.85-95.38a2,2,0,0,0-2-2Zm0,4Z"/></g><g class="cls-11"><path class="cls-12" d="M1554,598.1l178.57,34.81L1637,774.59,1554,598.1m0-2a2,2,0,0,0-1.81,2.86l83,176.48a2,2,0,0,0,1.65,1.14h.16a2,2,0,0,0,1.66-.89L1734.23,634a2,2,0,0,0-1.28-3.08l-178.57-34.8a2.45,2.45,0,0,0-.38,0Z"/></g><g class="cls-13"><path class="cls-12" d="M1760.59,420.06l191.88,167L1672.1,604.78l88.49-184.72m0-2a1.9,1.9,0,0,0-.41,0,2,2,0,0,0-1.4,1.09L1670.3,603.91a2,2,0,0,0,1.8,2.87h.13L1952.6,589a2,2,0,0,0,1.19-3.5l-191.89-167a2,2,0,0,0-1.31-.49Z"/></g><path class="cls-12" d="M1849.78,734.9l38,110.56-115.42-54.82,77.41-55.74m0-2a2,2,0,0,0-1.16.37L1771.21,789a2,2,0,0,0,.31,3.43l115.41,54.81a2,2,0,0,0,2.2-.31,2,2,0,0,0,.55-2.14l-38-110.56a2,2,0,0,0-1.29-1.26,2.1,2.1,0,0,0-.61-.09Z"/><g class="cls-13"><path class="cls-12" d="M1712.75,840.47l-4.67,168L1571,889.2l141.73-48.73m0-2a2.06,2.06,0,0,0-.65.11L1570.37,887.3a2,2,0,0,0-.66,3.41L1706.77,1010a2,2,0,0,0,3.31-1.45l4.67-168a2,2,0,0,0-.82-1.67,2,2,0,0,0-1.18-.39Zm0,4Z"/></g><g class="cls-13"><path class="cls-12" d="M1856,931.86l89.48,33.08L1875,1058.21l-19-126.35m0-2a2,2,0,0,0-1.26.45,2,2,0,0,0-.72,1.85l19,126.35a2,2,0,0,0,1.48,1.64,2.14,2.14,0,0,0,.5.06,2,2,0,0,0,1.59-.79l70.49-93.27a2,2,0,0,0,.32-1.77,2,2,0,0,0-1.22-1.31L1856.72,930a2.1,2.1,0,0,0-.7-.12Z"/></g><g class="cls-13"><path class="cls-12" d="M2311.2,1098.6l89.47,33.08L2330.18,1225l-19-126.35m0-2a2,2,0,0,0-2,2.3l19,126.35a2,2,0,0,0,1.49,1.64,2.05,2.05,0,0,0,.49.06,2,2,0,0,0,1.6-.79l70.49-93.27a2,2,0,0,0-.91-3.08l-89.47-33.09a2.09,2.09,0,0,0-.69-.12Z"/></g><g class="cls-13"><path class="cls-12" d="M2118.47,1139.1l100.23,60.18-123.62,32.3,23.39-92.48m0-2a2,2,0,0,0-1.94,1.5l-23.39,92.49a2,2,0,0,0,.53,1.91,2,2,0,0,0,1.41.58,1.77,1.77,0,0,0,.5-.07l123.62-32.3a2,2,0,0,0,.53-3.65l-100.23-60.18a2,2,0,0,0-1-.28Z"/></g><path class="cls-12" d="M3143.93,1681.09l72.49,105.21-94.91,9.53,22.42-114.74m0-2a1.84,1.84,0,0,0-.41,0,2,2,0,0,0-1.56,1.57l-22.42,114.74a2,2,0,0,0,2,2.39h.2l94.91-9.53a2,2,0,0,0,1.45-3.13L3145.57,1680a2,2,0,0,0-1.64-.86Z"/><g class="cls-11"><path class="cls-12" d="M3536,1008.91l94.77,142.2L3436,1160.87l100-152m0-2h0a2,2,0,0,0-1.67.9l-100,152a2,2,0,0,0,1.67,3.1h.1l194.79-9.77a2,2,0,0,0,1.69-1.09,2,2,0,0,0-.12-2l-94.77-142.2a2,2,0,0,0-1.67-.89Z"/></g><g class="cls-13"><path class="cls-12" d="M3851.5,1110.09l153.62,68.13-162.38,81.48,8.76-149.61m0-2a2,2,0,0,0-1,.29,2,2,0,0,0-1,1.59l-8.76,149.62a2,2,0,0,0,2.89,1.9L4006,1180a2,2,0,0,0-.08-3.61l-153.63-68.13a2.06,2.06,0,0,0-.81-.17Z"/></g><g class="cls-13"><path class="cls-12" d="M4015.05,888.07l59.5,100.63-124.09-30.43,64.59-70.2m0-2a2,2,0,0,0-1.47.64L3949,956.91a2,2,0,0,0,1,3.3l124.1,30.44a2.59,2.59,0,0,0,.47.05,2,2,0,0,0,1.73-3l-59.51-100.64a2,2,0,0,0-1.51-1Z"/></g><g class="cls-11"><path class="cls-12" d="M4074.17,619.19l94.76,142.2-194.79,9.76,100-152m0-2h0a2,2,0,0,0-1.66.9l-100,152a2,2,0,0,0,1.67,3.1h.1L4169,763.38a2,2,0,0,0,1.57-3.1l-94.77-142.2a2,2,0,0,0-1.66-.89Z"/></g><g class="cls-13"><path class="cls-12" d="M4033.67,388.86l-65.13,192.39L3869.3,471.34l164.37-82.48m0-2a1.93,1.93,0,0,0-.9.22L3868.4,469.56a2,2,0,0,0-.58,3.12l99.24,109.91a2,2,0,0,0,1.48.66,1.9,1.9,0,0,0,.41,0,2,2,0,0,0,1.49-1.32l65.12-192.38a2,2,0,0,0-.58-2.15,2,2,0,0,0-1.31-.5Zm0,4Z"/></g><path class="cls-12" d="M2947.14,1169.87l38,110.56-115.42-54.81,77.41-55.75m0-2a2,2,0,0,0-1.17.37L2868.56,1224a2,2,0,0,0-.82,1.81,2,2,0,0,0,1.13,1.62l115.42,54.81a2,2,0,0,0,.86.2,2,2,0,0,0,1.33-.51,2,2,0,0,0,.56-2.14l-38-110.56a2,2,0,0,0-1.29-1.26,2,2,0,0,0-.6-.09Z"/><g class="cls-13"><path class="cls-12" d="M2142.12,77.63l-4.67,168L2000.39,126.35l141.73-48.72m0-2a1.81,1.81,0,0,0-.65.11l-141.73,48.72a2,2,0,0,0-.66,3.4l137.06,119.26a2,2,0,0,0,1.31.5,2.1,2.1,0,0,0,.81-.17,2,2,0,0,0,1.19-1.78l4.67-168a2,2,0,0,0-.82-1.66,1.94,1.94,0,0,0-1.18-.39Zm0,4Z"/></g><g class="cls-13"><path class="cls-12" d="M2222.39,169l89.48,33.09-70.49,93.27-19-126.36m0-2a2,2,0,0,0-1.26.45,2,2,0,0,0-.71,1.85l19,126.35a2,2,0,0,0,1.48,1.65,2.14,2.14,0,0,0,.5.06,2,2,0,0,0,1.59-.8l70.49-93.27a2,2,0,0,0-.9-3.08l-89.47-33.08a1.89,1.89,0,0,0-.7-.13Z"/></g><g class="cls-11"><path class="cls-12" d="M2438.55,2l178.57,34.8-95.54,141.68L2438.55,2m0-2a2,2,0,0,0-1.81,2.85l83,176.48a2,2,0,0,0,1.65,1.15h.16a2,2,0,0,0,1.65-.88l95.55-141.68a2,2,0,0,0-1.28-3.08L2438.93,0a1.69,1.69,0,0,0-.38,0Z"/></g><path class="cls-12" d="M2671.33,138.79l38,110.56-115.42-54.81,77.41-55.75m0-2a2,2,0,0,0-1.17.38l-77.41,55.75a2,2,0,0,0,.31,3.43l115.42,54.81a2,2,0,0,0,.86.19,2,2,0,0,0,1.33-.51,2,2,0,0,0,.56-2.14l-38-110.56a2,2,0,0,0-1.28-1.25,1.86,1.86,0,0,0-.61-.1Z"/><g class="cls-13"><path class="cls-12" d="M1767.07,322.09l89.47,33.08-70.49,93.27-19-126.35m0-2a2,2,0,0,0-1.26.45,2,2,0,0,0-.72,1.85l19,126.35a2,2,0,0,0,1.48,1.64,2.05,2.05,0,0,0,.49.06,2,2,0,0,0,1.6-.79l70.49-93.27a2,2,0,0,0,.32-1.77,2,2,0,0,0-1.22-1.31l-89.48-33.09a2,2,0,0,0-.69-.12Z"/></g><g class="cls-13"><path class="cls-12" d="M2379.6,380.85,2228.65,617.77l-97-180.37,248-56.55m0-2a1.7,1.7,0,0,0-.44,0l-248,56.55a2,2,0,0,0-1.38,1.13,2,2,0,0,0,.06,1.77l97,180.37a2,2,0,0,0,1.69,1h.07a2,2,0,0,0,1.69-.92l150.95-236.93a2,2,0,0,0-.05-2.22,2,2,0,0,0-1.64-.85Zm0,4h0Z"/></g><g class="cls-10"><path class="cls-12" d="M3427.58,680.72l105.08,72.69L3447.28,796l-19.7-115.24m0-2a2,2,0,0,0-2,2.33l19.69,115.24a2,2,0,0,0,2.87,1.46l85.38-42.55a2,2,0,0,0,.24-3.43l-105.07-72.7a2.06,2.06,0,0,0-1.14-.35Z"/></g><g class="cls-13"><path class="cls-12" d="M3521.92,438.31l54.34,120.49-137.92-37.38,83.58-83.11m0-2a2,2,0,0,0-1.41.59L3436.93,520a2,2,0,0,0,.88,3.34l137.92,37.38a1.93,1.93,0,0,0,.53.07,2,2,0,0,0,1.82-2.82l-54.33-120.49a2,2,0,0,0-1.46-1.14,2.21,2.21,0,0,0-.37,0Z"/></g><g class="cls-13"><path class="cls-12" d="M2538.48,304.8l-1.62,127.76-83-47.07,84.6-80.69m0-2a2,2,0,0,0-1.38.55l-84.6,80.7a2,2,0,0,0,.4,3.18l83,47.07a2,2,0,0,0,1,.26,2,2,0,0,0,1-.26,2,2,0,0,0,1-1.71l1.62-127.76a2,2,0,0,0-1.2-1.86,2,2,0,0,0-.8-.17Zm0,4h0Z"/></g><g class="cls-13"><path class="cls-12" d="M2902.17,188.43l59.5,100.64-124.09-30.44,64.59-70.2m0-2a2,2,0,0,0-1.47.65l-64.59,70.2a2,2,0,0,0-.45,1.93,2,2,0,0,0,1.44,1.36L2961.2,291a1.84,1.84,0,0,0,.47.06,2,2,0,0,0,1.72-3l-59.5-100.64a2,2,0,0,0-1.51-1Z"/></g><path class="cls-12" d="M2032.82,3168.55l-42.24,120.58-63.65-71.05,105.89-49.53m0-2a2.13,2.13,0,0,0-.85.18l-105.89,49.54a2,2,0,0,0-.64,3.15l63.65,71a2,2,0,0,0,1.49.66,1.72,1.72,0,0,0,.39,0,2,2,0,0,0,1.5-1.3l42.24-120.58a2,2,0,0,0-.55-2.15,2,2,0,0,0-1.34-.51Zm0,4h0Z"/><g class="cls-11"><path class="cls-12" d="M2299.13,629.85l155.13,71.69-161,110.14,5.83-181.83m0-2a2,2,0,0,0-2,1.93l-5.84,181.84a2,2,0,0,0,1,1.82,2,2,0,0,0,1,.24,2,2,0,0,0,1.13-.34l161-110.15a2,2,0,0,0-.29-3.47L2300,628a2,2,0,0,0-.84-.18Z"/></g><g class="cls-13"><path class="cls-12" d="M2076.8,712.24l87.63,77.39L2037,798.94l39.8-86.7m0-2a2,2,0,0,0-.41,0,2,2,0,0,0-1.4,1.12l-39.81,86.69a2,2,0,0,0,1.82,2.84h.15l127.43-9.3a2,2,0,0,0,1.18-3.5l-87.63-77.39a2,2,0,0,0-1.33-.5Z"/></g><g class="cls-13"><path class="cls-12" d="M2884.83,4581.88l63.91,246.2-241.31-143.84,177.4-102.36m0-2a2,2,0,0,0-1,.27l-177.4,102.36a2,2,0,0,0,0,3.45l241.31,143.84a2,2,0,0,0,3-2.22l-63.9-246.2a2,2,0,0,0-1.17-1.34,1.87,1.87,0,0,0-.77-.16Z"/></g><path class="cls-12" d="M2616.56,4884.56l92.59,117.86L2549,5053.2l67.61-168.64m0-2-.28,0a2,2,0,0,0-1.57,1.24l-67.62,168.64a2,2,0,0,0,.39,2.1,2,2,0,0,0,1.47.64,2,2,0,0,0,.6-.09l160.2-50.79a2,2,0,0,0,1.31-1.31,2,2,0,0,0-.34-1.83l-92.58-117.85a2,2,0,0,0-1.58-.77Z"/><g class="cls-11"><path class="cls-12" d="M1806.78,4249.27l160.67,85.34-132.69,107.68-28-193m0-2a2,2,0,0,0-1.15.36,2,2,0,0,0-.83,1.93l28,193a2,2,0,0,0,1.25,1.58,2.1,2.1,0,0,0,.73.14,2,2,0,0,0,1.26-.45l132.69-107.68a2,2,0,0,0-.32-3.32l-160.68-85.34a2,2,0,0,0-.93-.23Z"/></g><g class="cls-13"><path class="cls-12" d="M2184.53,4253.51l134.89,215.64-273.37-64.73,138.48-150.91m0-2a2,2,0,0,0-1.48.64l-138.47,150.91a2,2,0,0,0,1,3.3L2319,4471.1a1.8,1.8,0,0,0,.46,0,2,2,0,0,0,1.7-3.06l-134.9-215.64a2,2,0,0,0-1.51-.94Z"/></g><g class="cls-13"><path class="cls-12" d="M1888,4527.38l-53.43,159.34-96.35-154,149.78-5.3m0-2h-.07l-149.78,5.3a2,2,0,0,0-1.62,3.06l96.35,154a2,2,0,0,0,1.69.94l.24,0a2,2,0,0,0,1.66-1.35L1889.89,4528a2,2,0,0,0-.3-1.83,2,2,0,0,0-1.6-.81Zm0,4h0Z"/></g><g class="cls-11"><path class="cls-12" d="M2944.6,4201.43l-5.25,170.81-164.36-105,169.61-65.81m0-2a2,2,0,0,0-.72.14l-169.61,65.8a2,2,0,0,0-.36,3.55l164.36,105a2,2,0,0,0,1.08.32,2,2,0,0,0,.93-.23,2,2,0,0,0,1.07-1.71l5.25-170.8a2,2,0,0,0-2-2.07Zm0,4h0Z"/></g><g class="cls-11"><path class="cls-12" d="M1413.78,4929.27l160.67,85.34-132.69,107.68-28-193m0-2a2,2,0,0,0-1.15.36,2,2,0,0,0-.83,1.93l28,193a2,2,0,0,0,1.25,1.58,2.1,2.1,0,0,0,.73.14,2,2,0,0,0,1.26-.45l132.69-107.68a2,2,0,0,0-.32-3.32l-160.68-85.34a2,2,0,0,0-.93-.23Z"/></g><g class="cls-13"><path class="cls-12" d="M1955.53,4872.51l134.89,215.64-273.37-64.73,138.48-150.91m0-2a2,2,0,0,0-1.48.64l-138.47,150.91a2,2,0,0,0,1,3.3L2090,5090.1a1.8,1.8,0,0,0,.46,0,2,2,0,0,0,1.7-3.06l-134.9-215.64a2,2,0,0,0-1.51-.94Z"/></g><g class="cls-13"><path class="cls-12" d="M2297.53,1253.85l47.43,276.9-193.07-68.36,145.64-208.54m0-2a2,2,0,0,0-1.64.86l-145.64,208.54a2,2,0,0,0-.26,1.75,2,2,0,0,0,1.23,1.28l193.08,68.35a1.88,1.88,0,0,0,.66.12,2,2,0,0,0,1.29-.47,2,2,0,0,0,.69-1.87l-47.44-276.9a2,2,0,0,0-1.54-1.61,2.1,2.1,0,0,0-.43-.05Z"/></g><path class="cls-12" d="M2833.21,2426l1.4,116.91-92.4-88.26,91-28.65m0-1a1,1,0,0,0-.3.05l-91,28.65a1,1,0,0,0-.67.72,1,1,0,0,0,.28,1l92.4,88.26a1,1,0,0,0,.69.28,1,1,0,0,0,.4-.09,1,1,0,0,0,.6-.93l-1.4-116.9a1,1,0,0,0-1-1Z"/><path class="cls-12" d="M2489.85,2326.21l91.4,72.9-126.81,15.68,35.41-88.58m0-2a2.24,2.24,0,0,0-.51.07,2,2,0,0,0-1.34,1.19l-35.41,88.58a2,2,0,0,0,1.85,2.74h.25l126.81-15.68a2,2,0,0,0,1-3.55l-91.4-72.9a2,2,0,0,0-1.25-.44Z"/></g></g></g></g></svg>