<svg xmlns="http://www.w3.org/2000/svg" viewBox="0 0 1662.42 3804.67"><defs><style>.cls-1{fill:#f4725c;}.cls-1,.cls-2,.cls-3{opacity:0.4;}.cls-2{fill:#f7a467;}.cls-3{fill:#9dc3bb;}.cls-4{fill:#f4c85e;opacity:0.1;}.cls-5{fill:#4f5f6e;}</style></defs><title>Asset 18</title><g id="Layer_2" data-name="Layer 2"><g id="Layer_1-2" data-name="Layer 1"><polygon class="cls-1" points="184.38 2999.87 128.23 3196.84 382.58 3198.96 184.38 2999.87"/><polygon class="cls-2" points="132.61 2734.37 206.46 2864.78 314.29 2735.88 132.61 2734.37"/><polygon class="cls-3" points="374.32 2901.34 463.25 2935.85 472.27 2819.29 374.32 2901.34"/><polygon class="cls-4" points="172.39 2038.37 190.29 2219.41 340.31 2137.57 172.39 2038.37"/><polygon class="cls-2" points="400.38 1996.4 532.74 2066.7 554.41 1900.05 400.38 1996.4"/><polygon class="cls-1" points="819.96 2769.74 630.07 2692.98 600.94 2945.67 819.96 2769.74"/><polygon class="cls-5" points="1229.22 2556.95 1346.11 2509.74 1249.34 2389.3 1229.22 2556.95"/><polygon class="cls-2" points="1136.04 2660.26 998.52 2719.84 1115.24 2840.76 1136.04 2660.26"/><polygon class="cls-3" points="1582.02 2418.52 1532.06 2219.89 1310.79 2345.33 1582.02 2418.52"/><polygon class="cls-3" points="1397.9 3033.94 1303.63 3048.56 1354.15 3153.99 1397.9 3033.94"/><polygon class="cls-4" points="626.58 2943.36 600.78 3123.45 765.98 3079.76 626.58 2943.36"/><polygon class="cls-2" points="270.25 3677.74 349.94 3804.67 451.81 3671.02 270.25 3677.74"/><polygon class="cls-4" points="1440.65 3336.47 1279.97 3421.8 1412.66 3529.48 1440.65 3336.47"/><polygon class="cls-1" points="1362.21 3619.88 1212.43 3614.58 1265.86 3773.91 1362.21 3619.88"/><polygon class="cls-3" points="910.58 3668.34 891.92 3574.79 788.76 3629.79 910.58 3668.34"/><polygon class="cls-4" points="472.43 3354.43 302.82 3288.63 308.07 3459.43 472.43 3354.43"/><polygon class="cls-4" points="1662.42 217.26 1483.85 252.06 1579.4 393.74 1662.42 217.26"/><polygon class="cls-1" points="1544.32 223.93 1455.84 39.21 1263.95 206.18 1544.32 223.93"/><polygon class="cls-5" points="1444.05 409.8 1366.64 354.05 1328.63 464.61 1444.05 409.8"/><polygon class="cls-2" points="1645.41 508.35 1503.68 459.62 1508.34 627.61 1645.41 508.35"/><polygon class="cls-2" points="1027.23 1686.09 885.5 1637.36 890.17 1805.35 1027.23 1686.09"/><polygon class="cls-1" points="1449.15 1849.77 1546.19 1669.4 1298.19 1612.84 1449.15 1849.77"/><polygon class="cls-4" points="932.57 2181.81 916.93 2000.55 765.9 2080.5 932.57 2181.81"/><polygon class="cls-3" points="542.79 1750.04 519.4 1657.56 419.17 1717.74 542.79 1750.04"/><polygon class="cls-4" points="733.13 1395.5 717.49 1214.24 566.47 1294.19 733.13 1395.5"/><polygon class="cls-5" points="564.88 1157.9 628.53 1086.86 522.64 1037.32 564.88 1157.9"/><polygon class="cls-2" points="384.49 1343.65 448 1207.9 280.46 1194.69 384.49 1343.65"/><polygon class="cls-1" points="105.23 1476.15 274.27 1591.8 356.85 1351.22 105.23 1476.15"/><polygon class="cls-5" points="0 1405.45 94.92 1414.98 72.5 1300.24 0 1405.45"/><polygon class="cls-1" points="987.77 236.93 1084.81 56.55 836.82 0 987.77 236.93"/><polygon class="cls-4" points="131.39 1566.37 149.29 1747.41 299.31 1665.58 131.39 1566.37"/><polygon class="cls-3" points="966.99 1930.06 1038.49 1993.21 1087.27 1886.96 966.99 1930.06"/><polygon class="cls-2" points="1346.76 2066.22 1209.24 2125.8 1325.95 2246.71 1346.76 2066.22"/></g></g></svg>