<svg xmlns="http://www.w3.org/2000/svg" viewBox="0 0 1662.42 3804.67"><defs><style>.cls-1{fill:#f4725c;}.cls-1,.cls-2,.cls-3{opacity:0.4;}.cls-2{fill:#f7a467;}.cls-3{fill:#9dc3bb;}.cls-4{fill:#f4c85e;opacity:0.1;}.cls-5{fill:#4f5f6e;}</style></defs><title>Asset 20</title><g id="Layer_2" data-name="Layer 2"><g id="Layer_1-2" data-name="Layer 1"><polygon class="cls-1" points="1478.05 2999.87 1534.2 3196.84 1279.85 3198.96 1478.05 2999.87"/><polygon class="cls-2" points="1529.81 2734.37 1455.96 2864.78 1348.13 2735.88 1529.81 2734.37"/><polygon class="cls-3" points="1288.1 2901.34 1199.17 2935.85 1190.15 2819.29 1288.1 2901.34"/><polygon class="cls-4" points="1490.04 2038.37 1472.13 2219.41 1322.12 2137.57 1490.04 2038.37"/><polygon class="cls-2" points="1262.05 1996.4 1129.68 2066.7 1108.02 1900.05 1262.05 1996.4"/><polygon class="cls-1" points="842.46 2769.74 1032.36 2692.98 1061.48 2945.67 842.46 2769.74"/><polygon class="cls-5" points="433.2 2556.95 316.31 2509.74 413.08 2389.3 433.2 2556.95"/><polygon class="cls-2" points="526.38 2660.26 663.9 2719.84 547.19 2840.76 526.38 2660.26"/><polygon class="cls-3" points="80.41 2418.52 130.37 2219.89 351.64 2345.33 80.41 2418.52"/><polygon class="cls-3" points="264.53 3033.94 358.79 3048.56 308.27 3153.99 264.53 3033.94"/><polygon class="cls-4" points="1035.85 2943.36 1061.65 3123.45 896.44 3079.76 1035.85 2943.36"/><polygon class="cls-2" points="1392.17 3677.74 1312.49 3804.67 1210.61 3671.02 1392.17 3677.74"/><polygon class="cls-4" points="221.78 3336.47 382.45 3421.8 249.76 3529.48 221.78 3336.47"/><polygon class="cls-1" points="300.21 3619.88 449.99 3614.58 396.56 3773.91 300.21 3619.88"/><polygon class="cls-3" points="751.85 3668.34 770.5 3574.79 873.67 3629.79 751.85 3668.34"/><polygon class="cls-4" points="1189.99 3354.43 1359.61 3288.63 1354.35 3459.43 1189.99 3354.43"/><polygon class="cls-4" points="0 217.26 178.57 252.06 83.03 393.74 0 217.26"/><polygon class="cls-1" points="118.11 223.93 206.59 39.21 398.47 206.18 118.11 223.93"/><polygon class="cls-5" points="218.38 409.8 295.78 354.05 333.79 464.61 218.38 409.8"/><polygon class="cls-2" points="17.02 508.35 158.75 459.62 154.08 627.61 17.02 508.35"/><polygon class="cls-2" points="635.19 1686.09 776.92 1637.36 772.26 1805.35 635.19 1686.09"/><polygon class="cls-1" points="213.28 1849.77 116.24 1669.4 364.23 1612.84 213.28 1849.77"/><polygon class="cls-4" points="729.86 2181.81 745.49 2000.55 896.52 2080.5 729.86 2181.81"/><polygon class="cls-3" points="1119.64 1750.04 1143.03 1657.56 1243.26 1717.74 1119.64 1750.04"/><polygon class="cls-4" points="929.3 1395.5 944.93 1214.24 1095.96 1294.19 929.3 1395.5"/><polygon class="cls-5" points="1097.55 1157.9 1033.89 1086.86 1139.79 1037.32 1097.55 1157.9"/><polygon class="cls-2" points="1277.93 1343.65 1214.43 1207.9 1381.96 1194.69 1277.93 1343.65"/><polygon class="cls-1" points="1557.19 1476.15 1388.15 1591.8 1305.57 1351.22 1557.19 1476.15"/><polygon class="cls-5" points="1662.42 1405.45 1567.51 1414.98 1589.92 1300.24 1662.42 1405.45"/><polygon class="cls-1" points="674.65 236.93 577.61 56.55 825.6 0 674.65 236.93"/><polygon class="cls-4" points="1531.04 1566.37 1513.13 1747.41 1363.12 1665.58 1531.04 1566.37"/><polygon class="cls-3" points="695.44 1930.06 623.94 1993.21 575.15 1886.96 695.44 1930.06"/><polygon class="cls-2" points="315.66 2066.22 453.18 2125.8 336.47 2246.71 315.66 2066.22"/></g></g></svg>