<svg xmlns="http://www.w3.org/2000/svg" viewBox="0 0 1581.01 808.11"><defs><style>.cls-1{fill:#f4c85e;opacity:0.1;}.cls-2{fill:#4f5f6e;}.cls-3{fill:#f7a467;}.cls-3,.cls-4,.cls-5{opacity:0.4;}.cls-4{fill:#9dc3bb;}.cls-5{fill:#f4725c;}</style></defs><title>Asset 13</title><g id="Layer_2" data-name="Layer 2"><g id="Layer_1-2" data-name="Layer 1"><polygon class="cls-1" points="0 695.2 156.79 787.48 179.13 618.06 0 695.2"/><polygon class="cls-2" points="291.13 695.72 312.16 788.77 413.89 731.16 291.13 695.72"/><polygon class="cls-3" points="205.65 488.48 279.5 618.89 387.33 489.99 205.65 488.48"/><polygon class="cls-4" points="447.36 645.4 536.29 679.91 545.31 563.35 447.36 645.4"/><polygon class="cls-5" points="328.05 147.7 135.85 218.48 284.1 425.17 328.05 147.7"/><polygon class="cls-2" points="416.64 63.89 353.88 135.74 460.39 183.94 416.64 63.89"/><polygon class="cls-4" points="517.39 126.41 541.94 218.59 641.41 157.15 517.39 126.41"/><polygon class="cls-1" points="853.4 51.59 674.04 82.08 766.14 226.02 853.4 51.59"/><polygon class="cls-5" points="1102.71 76.76 912.82 0 883.7 252.69 1102.71 76.76"/><polygon class="cls-2" points="1247.65 94.27 1152.89 105.29 1199.37 212.57 1247.65 94.27"/><polygon class="cls-3" points="1432.8 48.28 1295.28 107.86 1411.99 228.77 1432.8 48.28"/><polygon class="cls-1" points="1496.38 192.88 1387.97 338.99 1554.05 379.19 1496.38 192.88"/><polygon class="cls-5" points="683.09 775.88 871.87 696.43 714.38 496.7 683.09 775.88"/><polygon class="cls-3" points="1209.08 478.33 1071.56 537.91 1188.27 658.82 1209.08 478.33"/><polygon class="cls-4" points="1027.37 702 983.6 786.76 1098.55 808.11 1027.37 702"/><polygon class="cls-5" points="1549.05 607.58 1499.1 408.95 1277.82 534.39 1549.05 607.58"/><polygon class="cls-2" points="1581.01 730.26 1516.24 660.22 1456.99 761.01 1581.01 730.26"/></g></g></svg>