<svg id="Layer_1" data-name="Layer 1" xmlns="http://www.w3.org/2000/svg" xmlns:xlink="http://www.w3.org/1999/xlink" viewBox="0 0 1280 3627"><defs><style>.cls-1{fill:none;}.cls-2{clip-path:url(#clip-path);}.cls-3{fill:#f4725c;}.cls-3,.cls-4,.cls-5{opacity:0.4;}.cls-4{fill:#f7a467;}.cls-5{fill:#9dc3bb;}.cls-6{fill:#f4c85e;}.cls-10,.cls-6{opacity:0.1;}.cls-7{fill:#4f5f6e;}.cls-8{clip-path:url(#clip-path-2);}.cls-9{opacity:0.8;}.cls-11{fill:#1b1464;}</style><clipPath id="clip-path"><rect class="cls-1" x="1.01" y="-0.02" width="1278.8" height="3627.02"/></clipPath><clipPath id="clip-path-2"><rect class="cls-1" x="1515.01" y="-0.02" width="1278.8" height="3627.02"/></clipPath></defs><title>final_website-01</title><g class="cls-2"><polygon class="cls-3" points="3.04 2938.99 -53.11 3135.96 201.24 3138.08 3.04 2938.99"/><polygon class="cls-4" points="-48.73 2673.49 25.13 2803.9 132.95 2675 -48.73 2673.49"/><polygon class="cls-5" points="192.98 2840.46 281.91 2874.97 290.93 2758.41 192.98 2840.46"/><polygon class="cls-6" points="-8.95 1977.49 8.96 2158.54 158.97 2076.7 -8.95 1977.49"/><polygon class="cls-4" points="219.04 1935.53 351.4 2005.82 373.07 1839.17 219.04 1935.53"/><polygon class="cls-3" points="638.62 2708.86 448.73 2632.1 419.6 2884.79 638.62 2708.86"/><polygon class="cls-7" points="1047.88 2496.07 1164.77 2448.86 1068.01 2328.42 1047.88 2496.07"/><polygon class="cls-4" points="954.71 2599.39 817.19 2658.97 933.9 2779.88 954.71 2599.39"/><polygon class="cls-5" points="1400.68 2357.64 1350.72 2159.01 1129.45 2284.45 1400.68 2357.64"/><polygon class="cls-5" points="1216.56 2973.07 1122.29 2987.68 1172.82 3093.11 1216.56 2973.07"/><polygon class="cls-6" points="445.24 2882.48 419.44 3062.58 584.65 3018.88 445.24 2882.48"/><polygon class="cls-4" points="88.92 3616.86 168.6 3743.79 270.48 3610.14 88.92 3616.86"/><polygon class="cls-6" points="1259.31 3275.59 1098.63 3360.92 1231.32 3468.61 1259.31 3275.59"/><polygon class="cls-3" points="1180.87 3559 1031.1 3553.7 1084.52 3713.03 1180.87 3559"/><polygon class="cls-5" points="729.24 3607.47 710.59 3513.91 607.42 3568.91 729.24 3607.47"/><polygon class="cls-6" points="291.1 3293.55 121.48 3227.75 126.74 3398.56 291.1 3293.55"/><polygon class="cls-3" points="1362.98 163.05 1274.5 -21.67 1082.61 145.3 1362.98 163.05"/><polygon class="cls-7" points="1262.71 348.92 1185.3 293.17 1147.29 403.73 1262.71 348.92"/><polygon class="cls-4" points="845.89 1625.21 704.16 1576.49 708.83 1744.47 845.89 1625.21"/><polygon class="cls-3" points="1267.81 1788.89 1364.85 1608.52 1116.85 1551.97 1267.81 1788.89"/><polygon class="cls-6" points="751.23 2120.93 735.6 1939.67 584.57 2019.63 751.23 2120.93"/><polygon class="cls-5" points="361.45 1689.16 338.06 1596.68 237.83 1656.86 361.45 1689.16"/><polygon class="cls-6" points="551.79 1334.62 536.16 1153.36 385.13 1233.31 551.79 1334.62"/><polygon class="cls-7" points="383.54 1097.03 447.19 1025.98 341.3 976.44 383.54 1097.03"/><polygon class="cls-4" points="203.15 1282.77 266.66 1147.02 99.13 1133.82 203.15 1282.77"/><polygon class="cls-3" points="-76.11 1415.27 92.94 1530.92 175.52 1290.34 -76.11 1415.27"/><polygon class="cls-5" points="1268.02 -119.64 1178.54 -86.55 1249.03 6.72 1268.02 -119.64"/><polygon class="cls-3" points="806.44 176.05 903.48 -4.32 655.48 -60.88 806.44 176.05"/><polygon class="cls-6" points="-33.95 1440.49 -16.05 1621.54 133.97 1539.7 -33.95 1440.49"/><polygon class="cls-5" points="785.65 1869.18 857.15 1932.33 905.93 1826.09 785.65 1869.18"/><polygon class="cls-4" points="1165.42 2005.34 1027.9 2064.92 1144.62 2185.83 1165.42 2005.34"/></g><g class="cls-8"><g class="cls-9"><g class="cls-10"><path class="cls-11" d="M1390.76,1599.12h0m0,0-22.34,169.42-156.79-92.28,179.13-77.14m0-2h-.08a2,2,0,0,0-.76.18l-179.09,77.13a2,2,0,0,0-.22,3.56l156.8,92.27a2,2,0,0,0,1,.28,2,2,0,0,0,.88-.21,2,2,0,0,0,1.1-1.53l22.33-169.32a2.19,2.19,0,0,0,0-.36,2,2,0,0,0-2-2Zm0,4Z"/></g><path class="cls-11" d="M1351.16,319.36l22.42,114.74-94.92-9.53,72.5-105.21m0-2a2,2,0,0,0-1.65.86L1277,423.44a2,2,0,0,0-.17,2,2,2,0,0,0,1.61,1.15l94.92,9.53h.2a2,2,0,0,0,1.48-.65,2,2,0,0,0,.48-1.73L1353.12,319a2,2,0,0,0-1.55-1.58,1.9,1.9,0,0,0-.41,0Z"/></g></g></svg>