<svg id="Layer_1" data-name="Layer 1" xmlns="http://www.w3.org/2000/svg" xmlns:xlink="http://www.w3.org/1999/xlink" viewBox="0 0 1280 3627"><defs><style>.cls-1{fill:none;}.cls-2{clip-path:url(#clip-path);}.cls-3{fill:#f4725c;}.cls-3,.cls-4,.cls-5{opacity:0.4;}.cls-4{fill:#f7a467;}.cls-5{fill:#9dc3bb;}.cls-6{fill:#f4c85e;}.cls-10,.cls-6{opacity:0.1;}.cls-7{fill:#4f5f6e;}.cls-8{clip-path:url(#clip-path-2);}.cls-9{opacity:0.8;}.cls-11{fill:#1b1464;}</style><clipPath id="clip-path"><rect class="cls-1" x="1.01" y="-0.02" width="1278.8" height="3627.02" transform="translate(1280.82 3626.98) rotate(-180)"/></clipPath><clipPath id="clip-path-2"><rect class="cls-1" x="1515.01" y="-0.02" width="1278.8" height="3627.02" transform="translate(4308.82 3626.98) rotate(-180)"/></clipPath></defs><title>final_website</title><g class="cls-2"><polygon class="cls-3" points="1277.79 2938.99 1333.93 3135.96 1079.58 3138.08 1277.79 2938.99"/><polygon class="cls-4" points="1329.55 2673.49 1255.7 2803.9 1147.87 2675 1329.55 2673.49"/><polygon class="cls-5" points="1087.84 2840.46 998.91 2874.97 989.89 2758.41 1087.84 2840.46"/><polygon class="cls-6" points="1289.78 1977.49 1271.87 2158.54 1121.86 2076.7 1289.78 1977.49"/><polygon class="cls-4" points="1061.79 1935.53 929.42 2005.82 907.76 1839.17 1061.79 1935.53"/><polygon class="cls-3" points="642.2 2708.86 832.09 2632.1 861.22 2884.79 642.2 2708.86"/><polygon class="cls-7" points="232.94 2496.07 116.05 2448.86 212.82 2328.42 232.94 2496.07"/><polygon class="cls-4" points="326.12 2599.39 463.64 2658.97 346.92 2779.88 326.12 2599.39"/><polygon class="cls-5" points="-119.85 2357.64 -69.9 2159.01 151.38 2284.45 -119.85 2357.64"/><polygon class="cls-5" points="64.26 2973.07 158.53 2987.68 108.01 3093.11 64.26 2973.07"/><polygon class="cls-6" points="835.59 2882.48 861.38 3062.58 696.18 3018.88 835.59 2882.48"/><polygon class="cls-4" points="1191.91 3616.86 1112.23 3743.79 1010.35 3610.14 1191.91 3616.86"/><polygon class="cls-6" points="21.52 3275.59 182.19 3360.92 49.5 3468.61 21.52 3275.59"/><polygon class="cls-3" points="99.95 3559 249.73 3553.7 196.3 3713.03 99.95 3559"/><polygon class="cls-5" points="551.59 3607.47 570.24 3513.91 673.4 3568.91 551.59 3607.47"/><polygon class="cls-6" points="989.73 3293.55 1159.34 3227.75 1154.09 3398.56 989.73 3293.55"/><polygon class="cls-3" points="-82.16 163.05 6.32 -21.67 198.21 145.3 -82.16 163.05"/><polygon class="cls-7" points="18.11 348.92 95.52 293.17 133.53 403.73 18.11 348.92"/><polygon class="cls-4" points="434.93 1625.21 576.66 1576.49 571.99 1744.47 434.93 1625.21"/><polygon class="cls-3" points="13.02 1788.89 -84.02 1608.52 163.97 1551.97 13.02 1788.89"/><polygon class="cls-6" points="529.6 2120.93 545.23 1939.67 696.26 2019.63 529.6 2120.93"/><polygon class="cls-5" points="919.37 1689.16 942.77 1596.68 1043 1656.86 919.37 1689.16"/><polygon class="cls-6" points="729.03 1334.62 744.67 1153.36 895.7 1233.31 729.03 1334.62"/><polygon class="cls-7" points="897.29 1097.03 833.63 1025.98 939.53 976.44 897.29 1097.03"/><polygon class="cls-4" points="1077.67 1282.77 1014.17 1147.02 1181.7 1133.82 1077.67 1282.77"/><polygon class="cls-3" points="1356.93 1415.27 1187.89 1530.92 1105.31 1290.34 1356.93 1415.27"/><polygon class="cls-5" points="12.81 -119.64 102.28 -86.55 31.79 6.72 12.81 -119.64"/><polygon class="cls-3" points="474.39 176.05 377.35 -4.32 625.34 -60.88 474.39 176.05"/><polygon class="cls-6" points="1314.78 1440.49 1296.87 1621.54 1146.86 1539.7 1314.78 1440.49"/><polygon class="cls-5" points="495.17 1869.18 423.67 1932.33 374.89 1826.09 495.17 1869.18"/><polygon class="cls-4" points="115.4 2005.34 252.92 2064.92 136.21 2185.83 115.4 2005.34"/></g><g class="cls-8"><g class="cls-9"><g class="cls-10"><path class="cls-11" d="M1227.51,3567.54l160.68,85.34L1255.5,3760.56l-28-193m0-2a2,2,0,0,0-1.15.37,2,2,0,0,0-.82,1.92l28,193a2,2,0,0,0,1.25,1.57,1.86,1.86,0,0,0,.73.14,2,2,0,0,0,1.26-.45l132.69-107.68a2,2,0,0,0,.73-1.74,2,2,0,0,0-1-1.58l-160.68-85.33a1.93,1.93,0,0,0-.94-.24Z"/></g></g></g></svg>