<svg id="Layer_1" data-name="Layer 1" xmlns="http://www.w3.org/2000/svg" xmlns:xlink="http://www.w3.org/1999/xlink" viewBox="0 0 1280 3627"><defs><style>.cls-1{fill:none;}.cls-2{clip-path:url(#clip-path);}.cls-3{fill:#f4c85e;}.cls-12,.cls-3{opacity:0.1;}.cls-4{fill:#f7a467;}.cls-10,.cls-4,.cls-5,.cls-6{opacity:0.4;}.cls-5{fill:#9dc3bb;}.cls-6{fill:#f4725c;}.cls-7{fill:#4f5f6e;}.cls-7,.cls-9{opacity:0.8;}.cls-8{clip-path:url(#clip-path-2);}.cls-11{fill:#1b1464;}</style><clipPath id="clip-path"><rect class="cls-1" x="-1512.99" y="-0.02" width="1278.8" height="3627.02" transform="translate(-1747.18 3626.98) rotate(-180)"/></clipPath><clipPath id="clip-path-2"><rect class="cls-1" x="1.01" y="-0.02" width="1278.8" height="3627.02" transform="translate(1280.82 3626.98) rotate(-180)"/></clipPath></defs><title>final_website</title><g class="cls-2"><polygon class="cls-3" points="167.74 719.15 267.76 567.18 362.53 709.38 167.74 719.15"/><polygon class="cls-4" points="574.48 817.98 583.24 668.36 736.86 736.49 574.48 817.98"/><polygon class="cls-5" points="682.2 516.54 746.79 446.34 806.29 546.98 682.2 516.54"/><polygon class="cls-3" points="705.88 329.43 805.9 177.46 900.67 319.66 705.88 329.43"/><polygon class="cls-6" points="700.28 139.52 601.04 29.62 765.41 -52.86 700.28 139.52"/><polygon class="cls-7" points="264.39 311.68 179.01 354.23 159.32 238.99 264.39 311.68"/><polygon class="cls-4" points="170.07 79.7 253.66 -3.41 307.99 117.08 170.07 79.7"/></g><g class="cls-8"><g class="cls-9"><g class="cls-10"><path class="cls-11" d="M1325.79,1799l56.14,197-254.35,2.12L1325.79,1799m0-2a2,2,0,0,0-1.42.59l-198.2,199.09a2,2,0,0,0-.43,2.18,2,2,0,0,0,1.84,1.23h0L1382,1998a2,2,0,0,0,1.59-.8,2,2,0,0,0,.32-1.75l-56.15-197a2,2,0,0,0-1.42-1.39,2.2,2.2,0,0,0-.5-.06Z"/></g><path class="cls-11" d="M964.06,1814.78l-21,93-101.73-57.61,122.75-35.44m0-2a2.09,2.09,0,0,0-.55.08L840.75,1848.3a2,2,0,0,0-.43,3.66l101.73,57.61a2.06,2.06,0,0,0,1,.26,2.1,2.1,0,0,0,.81-.17,2,2,0,0,0,1.14-1.39l21-93a2,2,0,0,0-2-2.44Zm0,4h0Z"/><g class="cls-10"><path class="cls-11" d="M1135.89,1602.41l97.95,82L1144.91,1719l-9-116.56m0-2a2.1,2.1,0,0,0-.91.22,2,2,0,0,0-1.08,1.94l9,116.56a2,2,0,0,0,2,1.84,2,2,0,0,0,.72-.13l88.94-34.52a2,2,0,0,0,.56-3.39l-98-82a2,2,0,0,0-1.29-.47Z"/></g><g class="cls-12"><path class="cls-11" d="M1337.78,837.49l-17.91,181-150-81.84,167.92-99.21m0-2a1.94,1.94,0,0,0-1,.28L1168.84,935a2,2,0,0,0,.06,3.48l150,81.84a1.95,1.95,0,0,0,1.89,0,2,2,0,0,0,1.06-1.57l17.91-181a2,2,0,0,0-.92-1.89,2,2,0,0,0-1.07-.31Zm0,4Z"/></g><g class="cls-12"><path class="cls-11" d="M246.14,1494.78,423,1537.32,321.41,1674.71l-75.27-179.93m0-2a2,2,0,0,0-1.85,2.77l75.27,179.93a2,2,0,0,0,1.61,1.21l.24,0a2,2,0,0,0,1.61-.81l101.61-137.39a2,2,0,0,0-1.14-3.13L246.6,1492.84a1.82,1.82,0,0,0-.46-.06Z"/></g><g class="cls-10"><path class="cls-11" d="M878.09,1495.1l29.13,252.69-219-175.93,189.89-76.76m0-2a2,2,0,0,0-.75.15L687.45,1570a2,2,0,0,0-.5,3.42l219,175.93a2,2,0,0,0,1.25.44,2,2,0,0,0,1-.25,2,2,0,0,0,1-2l-29.13-252.69a2,2,0,0,0-1-1.49,2.1,2.1,0,0,0-1-.28Z"/></g><g class="cls-10"><path class="cls-11" d="M60.67,1636l28.85,165.55-158-89.6,129.2-76m0-2a2,2,0,0,0-1,.27l-129.2,76a2,2,0,0,0-1,1.74,2,2,0,0,0,1,1.73l158.06,89.6a1.89,1.89,0,0,0,1,.26,2,2,0,0,0,1.16-.36,2,2,0,0,0,.81-2L62.64,1635.67a2,2,0,0,0-1.13-1.47,2,2,0,0,0-.84-.18Z"/></g><path class="cls-11" d="M836.48,2012l78.08,54.8L822.63,2139l13.85-127m0-2a2,2,0,0,0-.83.18,2,2,0,0,0-1.16,1.61l-13.85,127a2,2,0,0,0,1,2,2,2,0,0,0,2.2-.18l91.94-72.22a2,2,0,0,0-.09-3.21l-78.08-54.79a2,2,0,0,0-1.15-.37Z"/><g class="cls-10"><path class="cls-11" d="M614.24,1854.19l92.59,117.86-160.2,50.78,67.61-168.64m0-2-.28,0a2,2,0,0,0-1.57,1.24l-67.62,168.63a2,2,0,0,0,2.46,2.66L707.43,1974a2,2,0,0,0,1.31-1.31,2,2,0,0,0-.34-1.83L615.82,1853a2,2,0,0,0-1.58-.77Z"/></g><g class="cls-10"><path class="cls-11" d="M378.39,2082.12l152.93,203.26-277.92-41,125-162.26m0-2a2,2,0,0,0-1.58.78l-125,162.25a2,2,0,0,0-.27,2,2,2,0,0,0,1.56,1.23l277.93,41,.29,0a2,2,0,0,0,1.6-3.2L380,2080.92a2,2,0,0,0-1.58-.8Z"/></g><path class="cls-11" d="M836.54,2736.68l78.08,54.8-91.93,72.22,13.85-127m0-2a2,2,0,0,0-2,1.78l-13.85,127a2,2,0,0,0,2,2.22,2,2,0,0,0,1.24-.43l91.94-72.22a2,2,0,0,0-.09-3.21L837.68,2735a2,2,0,0,0-1.14-.36Z"/><g class="cls-10"><path class="cls-11" d="M150.73,2413.7,97.3,2573,1,2419l149.78-5.3m0-2h-.07L.88,2417a2,2,0,0,0-1.69,1.06,2,2,0,0,0,.07,2l96.35,154a2,2,0,0,0,1.69.94h.24a2,2,0,0,0,1.66-1.35l53.42-159.33a2,2,0,0,0-1.89-2.64Zm0,4Z"/></g><g class="cls-10"><path class="cls-11" d="M261.15,2542.88l75.94,57.72-94.61,68.68,18.67-126.4m0-2a2,2,0,0,0-.76.15,2,2,0,0,0-1.22,1.56L240.5,2669a2,2,0,0,0,.94,2,2,2,0,0,0,1,.29,2,2,0,0,0,1.17-.38l94.62-68.68a2,2,0,0,0,.82-1.6,2,2,0,0,0-.79-1.61l-75.94-57.72a2,2,0,0,0-1.21-.41Z"/></g><g class="cls-12"><path class="cls-11" d="M1292.34,2086.75l-5.25,170.81-164.36-105,169.61-65.8m0-2a2,2,0,0,0-.72.14L1122,2150.69a2,2,0,0,0-.36,3.55l164.36,105a2,2,0,0,0,1.08.32,2,2,0,0,0,2-1.94l5.25-170.81a2,2,0,0,0-.84-1.69,2,2,0,0,0-1.16-.37Zm0,4h0Z"/></g><g class="cls-10"><path class="cls-11" d="M1361.27,2604.34l-1.86,95.37-111.25-35.93,113.11-59.44m0-2a1.91,1.91,0,0,0-.93.23L1247.23,2662a2,2,0,0,0,.32,3.67l111.25,35.94a2.15,2.15,0,0,0,.61.09,2,2,0,0,0,1.17-.37,2,2,0,0,0,.83-1.59l1.86-95.37a2,2,0,0,0-1-1.75,2.08,2.08,0,0,0-1-.29Zm0,4Z"/></g><path class="cls-11" d="M332.56,1806.82l-42.24,120.59-63.66-71.05,105.9-49.54m0-2a2,2,0,0,0-.85.19l-105.89,49.54a2,2,0,0,0-1.11,1.41,2,2,0,0,0,.46,1.73l63.66,71a2,2,0,0,0,1.49.67,2.58,2.58,0,0,0,.39,0,2,2,0,0,0,1.5-1.3l42.24-120.59a2,2,0,0,0-.55-2.14,2,2,0,0,0-1.34-.52Zm0,4h0Z"/><g class="cls-10"><path class="cls-11" d="M1184.57,3220.15l63.91,246.21-241.32-143.85,177.41-102.36m0-2a2,2,0,0,0-1,.27l-177.41,102.36a2,2,0,0,0-1,1.72,2,2,0,0,0,1,1.73l241.31,143.84a2,2,0,0,0,1,.29,2.06,2.06,0,0,0,1.2-.4,2,2,0,0,0,.73-2.11l-63.9-246.2a2,2,0,0,0-1.17-1.34,1.9,1.9,0,0,0-.77-.16Z"/></g><path class="cls-11" d="M916.3,3522.84l92.58,117.85-160.19,50.78,67.61-168.63m0-2a1.32,1.32,0,0,0-.28,0,2,2,0,0,0-1.58,1.23l-67.61,168.64a2,2,0,0,0,1.86,2.74,2.08,2.08,0,0,0,.6-.09l160.2-50.78a2,2,0,0,0,1-3.14L917.87,3521.6a2,2,0,0,0-1.57-.76Z"/><g class="cls-12"><path class="cls-11" d="M106.51,2887.54l160.68,85.34L134.5,3080.56l-28-193m0-2a2,2,0,0,0-1.15.37,2,2,0,0,0-.82,1.92l28,193a2,2,0,0,0,1.25,1.57,1.86,1.86,0,0,0,.73.14,2,2,0,0,0,1.26-.45l132.69-107.68a2,2,0,0,0,.73-1.74,2,2,0,0,0-1.05-1.58l-160.68-85.33a1.93,1.93,0,0,0-.94-.24Z"/></g><g class="cls-10"><path class="cls-11" d="M484.27,2891.78l134.89,215.65-273.37-64.74,138.48-150.91m0-2a2,2,0,0,0-1.48.65L344.31,3041.34a2,2,0,0,0,1,3.3l273.37,64.73a1.76,1.76,0,0,0,.46.06,2,2,0,0,0,1.62-.84,2,2,0,0,0,.07-2.22L486,2890.72a2,2,0,0,0-1.51-.93Z"/></g><g class="cls-10"><path class="cls-11" d="M187.73,3165.66,134.3,3325,38,3171l149.78-5.3m0-2h-.07L37.88,3169a2,2,0,0,0-1.62,3.06l96.35,154a2,2,0,0,0,1.69.94h.24a2,2,0,0,0,1.66-1.35l53.42-159.34a2,2,0,0,0-1.89-2.63Zm0,4Z"/></g><g class="cls-12"><path class="cls-11" d="M1244.34,2839.71l-5.25,170.8-164.36-105,169.61-65.8m0-2a2,2,0,0,0-.72.13L1074,2903.65a2,2,0,0,0-1.27,1.66,2,2,0,0,0,.91,1.89l164.36,105a2,2,0,0,0,1.08.31,1.91,1.91,0,0,0,.93-.23,2,2,0,0,0,1.07-1.71l5.25-170.8a2,2,0,0,0-.84-1.69,2,2,0,0,0-1.16-.37Zm0,4h0Z"/></g><g class="cls-10"><path class="cls-11" d="M255.27,3510.78l134.89,215.65-273.37-64.74,138.48-150.91m0-2a2,2,0,0,0-1.48.65L115.31,3660.34a2,2,0,0,0,1,3.3l273.37,64.73a1.76,1.76,0,0,0,.46.06,2,2,0,0,0,1.62-.84,2,2,0,0,0,.07-2.22L257,3509.72a2,2,0,0,0-1.51-.93Z"/></g><g class="cls-10"><path class="cls-11" d="M597.27-107.87,644.7,169,451.63,100.67,597.27-107.87m0-2a2,2,0,0,0-1.64.85L450,99.52a2,2,0,0,0,1,3L644,170.91a2.12,2.12,0,0,0,.66.11,2,2,0,0,0,2-2.34L599.24-108.21a2,2,0,0,0-1.54-1.62,2.09,2.09,0,0,0-.43,0Z"/></g><path class="cls-11" d="M1132.94,1064.23l1.41,116.9-92.4-88.25,91-28.65m0-1a1,1,0,0,0-.3,0l-91,28.65a1,1,0,0,0-.67.73,1,1,0,0,0,.28.95l92.4,88.25a1,1,0,0,0,.69.28,1.14,1.14,0,0,0,.4-.08,1,1,0,0,0,.6-.93l-1.41-116.9a1,1,0,0,0-1-1Z"/><path class="cls-11" d="M789.59,964.49l91.4,72.9-126.81,15.68,35.41-88.58m0-2a2.22,2.22,0,0,0-.51.06,2.06,2.06,0,0,0-1.35,1.19l-35.4,88.58a2,2,0,0,0,1.85,2.75l.25,0,126.8-15.68a2,2,0,0,0,1-3.55l-91.4-72.9a2,2,0,0,0-1.25-.43Z"/></g></g></svg>