<svg id="Layer_1" data-name="Layer 1" xmlns="http://www.w3.org/2000/svg" xmlns:xlink="http://www.w3.org/1999/xlink" viewBox="0 0 1280 3627"><defs><style>.cls-1{fill:none;}.cls-2{clip-path:url(#clip-path);}.cls-3{opacity:0.8;}.cls-4{opacity:0.4;}.cls-5{fill:#1b1464;}.cls-6{opacity:0.1;}</style><clipPath id="clip-path"><rect class="cls-1" x="1.01" y="-0.02" width="1278.8" height="3627.02"/></clipPath></defs><title>final_website-01</title><g class="cls-2"><g class="cls-3"><g class="cls-4"><path class="cls-5" d="M-45,1799l198.2,199.09L-101.11,1996-45,1799m0-2a2.07,2.07,0,0,0-.5.06,2,2,0,0,0-1.43,1.39l-56.14,197a2,2,0,0,0,.32,1.75,2,2,0,0,0,1.58.8l254.35,2.12h0a2,2,0,0,0,1.42-3.41l-198.2-199.09A2,2,0,0,0-45,1797Z"/></g><path class="cls-5" d="M316.76,1814.78l122.76,35.44-101.73,57.61-21-93m0-2a2,2,0,0,0-1.95,2.44l21,93a2,2,0,0,0,1.14,1.39,2.06,2.06,0,0,0,.81.17,2,2,0,0,0,1-.26L440.5,1852a2,2,0,0,0-.43-3.66l-122.76-35.44a2.09,2.09,0,0,0-.55-.08Z"/><g class="cls-4"><path class="cls-5" d="M144.93,1602.41h0m0,0-9,116.56L47,1684.46l98-82m0-2h-.05a2,2,0,0,0-1.24.48l-97.94,82a2,2,0,0,0,.56,3.39l88.93,34.52a2.06,2.06,0,0,0,1.79-.17,2,2,0,0,0,.93-1.54l9-116.46a2.17,2.17,0,0,0,0-.26,2,2,0,0,0-2-2Zm0,4h0Z"/></g><g class="cls-6"><path class="cls-5" d="M-56.95,837.49,111,936.7l-150,81.84-17.91-181m0-2a2,2,0,0,0-1.08.31,2,2,0,0,0-.91,1.89l17.9,181A2,2,0,0,0-40,1020.3a1.93,1.93,0,0,0,.94.24,1.93,1.93,0,0,0,.95-.25l150-81.84a2,2,0,0,0,1-1.72,2,2,0,0,0-1-1.76l-167.93-99.2a1.93,1.93,0,0,0-1-.28Z"/></g><g class="cls-6"><path class="cls-5" d="M1034.69,1494.78h0m0,0-75.27,179.93L857.8,1537.32l176.89-42.54m0-2h-.11a1.34,1.34,0,0,0-.4.06l-176.85,42.53a2,2,0,0,0-1.14,3.13L957.81,1675.9a2,2,0,0,0,1.61.81l.24,0a2,2,0,0,0,1.6-1.21l75.24-179.84a2,2,0,0,0,.19-.86,2,2,0,0,0-2-2Zm0,4Z"/></g><g class="cls-4"><path class="cls-5" d="M402.73,1495.1l189.89,76.76-219,175.93,29.13-252.69m0-2a2.06,2.06,0,0,0-1,.28,2,2,0,0,0-1,1.49l-29.12,252.69a2,2,0,0,0,1,2,1.94,1.94,0,0,0,1,.25,2,2,0,0,0,1.26-.44l219-175.93a2,2,0,0,0,.72-1.85,2,2,0,0,0-1.23-1.57l-189.89-76.75a2,2,0,0,0-.75-.15Z"/></g><g class="cls-4"><path class="cls-5" d="M1220.15,1636l129.2,76-158,89.6L1220.15,1636m0-2a2.08,2.08,0,0,0-.84.18,2,2,0,0,0-1.13,1.47l-28.85,165.56a2,2,0,0,0,2,2.34,2,2,0,0,0,1-.26l158-89.6a2,2,0,0,0,0-3.47l-129.2-76a2,2,0,0,0-1-.27Z"/></g><path class="cls-5" d="M444.35,2012l13.85,127-91.94-72.22,78.09-54.8m0-2a2,2,0,0,0-1.15.37l-78.09,54.79a2,2,0,0,0-.08,3.21L457,2140.58a2,2,0,0,0,1.24.43,2,2,0,0,0,2-2.21l-13.85-127a2,2,0,0,0-1.17-1.61,2,2,0,0,0-.82-.18Z"/><g class="cls-4"><path class="cls-5" d="M666.58,1854.19l67.61,168.64L574,1972.05l92.58-117.86m0-2a2,2,0,0,0-1.57.77l-92.58,117.85a2,2,0,0,0-.34,1.83,2,2,0,0,0,1.3,1.31l160.2,50.79a2.08,2.08,0,0,0,.6.09,2,2,0,0,0,1.86-2.75l-67.61-168.63a2,2,0,0,0-1.57-1.24l-.29,0Z"/></g><g class="cls-4"><path class="cls-5" d="M902.43,2082.12l125,162.26-277.92,41,152.92-203.26m0-2h0a2,2,0,0,0-1.59.8L747.91,2284.18a2,2,0,0,0-.12,2.22,2,2,0,0,0,1.72,1l.29,0,277.92-41a2,2,0,0,0,1.29-3.2L904,2080.9a2,2,0,0,0-1.58-.78Z"/></g><path class="cls-5" d="M444.29,2736.68l13.85,127-91.94-72.22,78.09-54.8m0-2a2,2,0,0,0-1.15.36l-78.09,54.8a2,2,0,0,0-.85,1.58,2,2,0,0,0,.77,1.63l91.93,72.22a2,2,0,0,0,2.21.18,2,2,0,0,0,1-2l-13.85-127a2,2,0,0,0-1.17-1.61,2,2,0,0,0-.82-.18Z"/><g class="cls-4"><path class="cls-5" d="M1130.1,2413.7l149.77,5.3-96.35,154L1130.1,2413.7m0-2a2,2,0,0,0-1.9,2.64l53.43,159.33a2,2,0,0,0,1.66,1.35h.23a2,2,0,0,0,1.7-.94l96.35-154a2,2,0,0,0-1.63-3.06l-149.77-5.3Z"/></g><g class="cls-4"><path class="cls-5" d="M1019.68,2542.88l18.67,126.4-94.62-68.68,75.95-57.72m0-2a2,2,0,0,0-1.21.41l-76,57.72a2,2,0,0,0-.79,1.62,2,2,0,0,0,.83,1.59l94.61,68.68a2,2,0,0,0,3.16-1.91l-18.67-126.4a2,2,0,0,0-1.23-1.56,2,2,0,0,0-.75-.15Z"/></g><g class="cls-6"><path class="cls-5" d="M-11.52,2086.75l169.62,65.8-164.36,105-5.26-170.81m0-2a2,2,0,0,0-1.15.37,2,2,0,0,0-.85,1.69l5.26,170.81a2,2,0,0,0,1.06,1.7,2,2,0,0,0,.94.24,2,2,0,0,0,1.07-.32l164.36-105a2,2,0,0,0-.35-3.55l-169.62-65.8a2,2,0,0,0-.72-.14Z"/></g><g class="cls-4"><path class="cls-5" d="M-80.44,2604.34l113.1,59.44-111.25,35.93-1.85-95.37m0-2a2.05,2.05,0,0,0-1,.29,2,2,0,0,0-1,1.75l1.85,95.37a2,2,0,0,0,.84,1.59,2,2,0,0,0,1.16.37,2.1,2.1,0,0,0,.61-.09l111.26-35.94a2,2,0,0,0,.31-3.67l-113.1-59.44a1.91,1.91,0,0,0-.93-.23Z"/></g><path class="cls-5" d="M948.26,1806.82l105.9,49.54-63.66,71.05-42.24-120.59m0-2a2,2,0,0,0-1.34.52,2,2,0,0,0-.54,2.14l42.24,120.59a2,2,0,0,0,1.49,1.3,2.58,2.58,0,0,0,.39,0,2,2,0,0,0,1.49-.67l63.66-71a2,2,0,0,0-.64-3.14L949.11,1805a2,2,0,0,0-.85-.19Z"/><g class="cls-4"><path class="cls-5" d="M96.25,3220.15l177.41,102.36L32.35,3466.36l63.9-246.21m0-2a2.08,2.08,0,0,0-.77.16,2,2,0,0,0-1.16,1.34l-63.91,246.2a2,2,0,0,0,1.94,2.51,2,2,0,0,0,1-.29l241.31-143.84a2,2,0,0,0,1-1.73,2,2,0,0,0-1-1.72L97.25,3218.42a2,2,0,0,0-1-.27Z"/></g><path class="cls-5" d="M364.52,3522.84l67.62,168.63-160.2-50.78,92.58-117.85m0-2a2,2,0,0,0-1.57.76l-92.58,117.86a2,2,0,0,0,1,3.14l160.19,50.78a2.1,2.1,0,0,0,.61.09,2,2,0,0,0,1.85-2.74l-67.61-168.64a2,2,0,0,0-1.57-1.23,1.42,1.42,0,0,0-.29,0Z"/><g class="cls-6"><path class="cls-5" d="M1174.31,2887.54h0m0,0-28,193-132.69-107.68,160.68-85.34m0-2h0a2,2,0,0,0-.92.25l-160.64,85.32a2,2,0,0,0-.33,3.32l132.69,107.68a2,2,0,0,0,1.26.45,1.83,1.83,0,0,0,.73-.14,2,2,0,0,0,1.25-1.57l28-192.92a1.61,1.61,0,0,0,0-.39,2,2,0,0,0-2-2Zm0,4Z"/></g><g class="cls-4"><path class="cls-5" d="M796.56,2891.78,935,3042.69l-273.37,64.74,134.89-215.65m0-2h-.19a2,2,0,0,0-1.51.93L660,3106.37a2,2,0,0,0,1.7,3.06,1.88,1.88,0,0,0,.46-.06l273.37-64.73a2,2,0,0,0,1-3.3L798,2890.43a2,2,0,0,0-1.47-.65Z"/></g><g class="cls-4"><path class="cls-5" d="M1093.1,3165.66l149.77,5.3-96.35,154-53.42-159.33m0-2a2,2,0,0,0-1.9,2.63l53.43,159.34a2,2,0,0,0,1.66,1.35h.23a2,2,0,0,0,1.7-.94l96.35-154a2,2,0,0,0-1.63-3.06l-149.77-5.3Z"/></g><g class="cls-6"><path class="cls-5" d="M36.48,2839.71l169.62,65.8-164.36,105-5.26-170.8m0-2a1.92,1.92,0,0,0-1.15.37,2,2,0,0,0-.85,1.69l5.26,170.8a2,2,0,0,0,1.06,1.71,2,2,0,0,0,.94.23,2,2,0,0,0,1.07-.31l164.36-105a2,2,0,0,0-.35-3.55L37.2,2837.84a2,2,0,0,0-.72-.13Z"/></g><g class="cls-4"><path class="cls-5" d="M1025.56,3510.78,1164,3661.69l-273.37,64.74,134.89-215.65m0-2h-.19a2,2,0,0,0-1.51.93L889,3725.37a2,2,0,0,0,1.7,3.06,1.88,1.88,0,0,0,.46-.06l273.37-64.73a2,2,0,0,0,1-3.3L1027,3509.43a2,2,0,0,0-1.47-.65Z"/></g><g class="cls-4"><path class="cls-5" d="M683.56-107.87,829.2,100.67,636.12,169l47.44-276.89m0-2a2.18,2.18,0,0,0-.44,0,2,2,0,0,0-1.53,1.62L634.15,168.68a2,2,0,0,0,2,2.34,2.19,2.19,0,0,0,.67-.11l193.07-68.36a2,2,0,0,0,1.24-1.27,2,2,0,0,0-.26-1.76L685.2-109a2,2,0,0,0-1.64-.85Z"/></g><path class="cls-5" d="M147.88,1064.23l91,28.64-92.39,88.26,1.4-116.9m0-1a1,1,0,0,0-1,1l-1.4,116.9a1,1,0,0,0,.6.93,1.1,1.1,0,0,0,.4.08,1,1,0,0,0,.69-.28l92.39-88.25a1,1,0,0,0-.39-1.68l-91-28.65a1,1,0,0,0-.3,0Z"/><path class="cls-5" d="M491.23,964.49l35.41,88.58-126.8-15.68,91.39-72.9m0-2a2,2,0,0,0-1.24.43l-91.4,72.9a2,2,0,0,0,1,3.55l126.81,15.68.24,0a2,2,0,0,0,1.86-2.75l-35.41-88.58a2,2,0,0,0-1.34-1.19,2.31,2.31,0,0,0-.52-.06Z"/></g></g></svg>