<svg xmlns="http://www.w3.org/2000/svg" viewBox="0 0 651.28 538.68"><defs><style>.cls-1,.cls-3{fill:#4f5f6e;}.cls-2{fill:none;}.cls-2,.cls-3{stroke:#4f5f6e;stroke-miterlimit:10;}</style></defs><title>Asset 22</title><g id="Layer_2" data-name="Layer 2"><g id="Layer_1-2" data-name="Layer 1"><path class="cls-1" d="M82.94,513.38a6.17,6.17,0,0,1-6.14,6.14h-.72v-.29a24.15,24.15,0,0,0-10.08-12H76.8a6.23,6.23,0,0,1,4.34,1.8A6.16,6.16,0,0,1,82.94,513.38Z"/><path class="cls-1" d="M24.09,507.16a22.6,22.6,0,0,0-4.51,1l-.31-.94a14.8,14.8,0,1,1,14.61,0l-.33.91A20.29,20.29,0,0,0,24.09,507.16Z"/><path class="cls-1" d="M13.87,527A9.1,9.1,0,0,0,11,527c-.51.29,3.55-8.64,3.55-7S13.87,527,13.87,527Z"/><path class="cls-1" d="M25.7,527.75c-6.55.07-13,.1-19.37,0a17.13,17.13,0,0,1,1.78-10.7,17.83,17.83,0,0,1,5.47-5.86,20.71,20.71,0,0,1,6-3.07,22.6,22.6,0,0,1,4.51-1,20.29,20.29,0,0,1,9.46,1,13.82,13.82,0,0,1,1.51.63,19.07,19.07,0,0,1,8.06,7.34,18.81,18.81,0,0,1,2.57,11.23C39.14,527.54,32.47,527.66,25.7,527.75ZM13.87,527s.72-5.31.72-7-4.06,7.25-3.55,7A9.1,9.1,0,0,1,13.87,527Z"/><path class="cls-2" d="M6.33,527.8c6.36.05,12.82,0,19.37,0,6.77-.09,13.44-.21,20-.41a18.81,18.81,0,0,0-2.57-11.23,19.07,19.07,0,0,0-8.06-7.34,13.82,13.82,0,0,0-1.51-.63,20.29,20.29,0,0,0-9.46-1,22.6,22.6,0,0,0-4.51,1,20.71,20.71,0,0,0-6,3.07,17.83,17.83,0,0,0-5.47,5.86A17.13,17.13,0,0,0,6.33,527.8Z"/><path class="cls-2" d="M70.29,528c.67,0,1.35,0,2,0a.57.57,0,0,0,.26,0c1.54,0,3.07,0,4.61,0a19.35,19.35,0,0,0-1.1-8.45h.72a6.15,6.15,0,0,0,0-12.29H65.47l.24-.14a14.79,14.79,0,1,0-14.88.14H33.88a14.8,14.8,0,1,0-14.61,0H6.64A6.16,6.16,0,0,0,.5,513.38a6.23,6.23,0,0,0,1.8,4.34,6.14,6.14,0,0,0,4.34,1.8h.08a17.65,17.65,0,0,0-.89,8.38h.5l4.73.07c2.52,0,7.9.12,14.16.12,9.12,0,9.19-.22,17.62-.1,4.72.07,9.5.1,14.35.12,4.2,0,8.35,0,12.48-.05h.38"/><path class="cls-2" d="M76.08,519.23a24.15,24.15,0,0,0-10.08-12,1.45,1.45,0,0,0-.29-.14l-.24-.15"/><path class="cls-2" d="M14.59,520.05c0,1.65-.72,7-.72,7A9.1,9.1,0,0,0,11,527C10.53,527.3,14.59,518.37,14.59,520.05Z"/><path class="cls-2" d="M72.57,528c-.12-.87-3.6-8.43-3.6-6.87s.63,6.36.7,6.91v.05l.38-.05.24,0a9.16,9.16,0,0,1,2,0l.21.09S72.57,528.11,72.57,528Z"/><path class="cls-3" d="M53.15,191a4.25,4.25,0,0,0-4.79-.92c-1.62.89-1.72,3.07-2.21,5.16-.53,2.25-2.37,8.16-6.26,10.31-1.33.74-2.48.79-5.49.78-2.36,0-5.59-.06-9-.09a13.53,13.53,0,1,0-8.72,0c-1.11,0-2.19,0-3.18,0-2.23.05-6.73.22-8.69,3a7.87,7.87,0,0,0-.55.91,15,15,0,0,0-1.7,6.64L3,231.11H36.26v-1.75l.13,0L36.26,224v-7.15c0-.64.05-1.29.08-1.94a20.14,20.14,0,0,0,3.74-.07,15.49,15.49,0,0,0,6.62-2c2.41-1.56,3.33-3.68,5.16-7.92a26.93,26.93,0,0,0,2.21-9.39C54.19,192.76,53.8,191.75,53.15,191Z"/><path class="cls-2" d="M84.56,217.69a9.79,9.79,0,0,0-9.67-8.54H73.41a12.78,12.78,0,1,0-10.45,0h-.82a9.79,9.79,0,0,0-9.67,8.54l-.08,1.21v12.84H84.64V218.9C84.61,218.5,84.59,218.09,84.56,217.69Z"/><path class="cls-2" d="M76.49,160a43.53,43.53,0,0,0-23.78-9.94,43,43,0,0,0-19.31,3,47.23,47.23,0,0,0-12.17,7.48c-4.62,3.61-9.26,9.31-9.26,10.2s3-1.22,7-.67c4.69.65,7.25,4,9,4,3.5,0,3.86-4,8.32-4.65a11.72,11.72,0,0,1,5.76.92c3.91,1.43,4.44,3.37,6.39,3.67v15.55h2.17V173.7c1.53-.85,2.39-2.81,5.48-3.84a11.16,11.16,0,0,1,8.59,1c2.74,1.55,3.83,3.46,4.92,3.46s1.91-1.74,4.8-3.13a11.68,11.68,0,0,1,5-1.11c4.14-.05,6,2.57,6.92,1.67S82.93,165.11,76.49,160Z"/><polygon class="cls-2" points="8.1 335.39 8.1 378.07 75.34 378.07 75.34 333.25 8.1 333.25 8.1 335.39"/><path class="cls-3" d="M42.39,347.69c-2.27-2.68-5.49-3.88-8.06-3A7.37,7.37,0,0,0,31,347.47a7.84,7.84,0,0,0-1.39,4.14,8.82,8.82,0,0,0,1.24,4.52,19.68,19.68,0,0,0,4.48,5.49,37.19,37.19,0,0,0,6.44,4.77,21.79,21.79,0,0,0,6.68-4.53c1.41-1.48,3.2-2.79,4.69-5.21,1.18-1.91,2.27-3.68,2-6a7.31,7.31,0,0,0-2-4.06,7,7,0,0,0-3.72-2.14A7.38,7.38,0,0,0,42.39,347.69Z"/><line class="cls-2" x1="8.1" y1="333.25" x2="29.56" y2="351.61"/><line class="cls-2" x1="75.34" y1="333.25" x2="55.07" y2="350.65"/><line class="cls-2" x1="75.34" y1="378.07" x2="51.36" y2="358.71"/><line class="cls-2" x1="8.1" y1="378.07" x2="32.72" y2="358.71"/><path class="cls-1" d="M611.91,69.45c-1.58,0-3.16,0-4.74,0-.35,0-.44-.09-.44-.43,0-1.26,0-2.52,0-3.78a.61.61,0,0,0-.42-.65c-4.59-2.13-6.92-5.82-7.34-10.8,0-.34,0-.48.44-.48,3.1,0,6.2,0,9.31,0,.3,0,.45,0,.51.39a2.06,2.06,0,0,0,2.28,1.69,2.11,2.11,0,0,0,1.85-2.26,2,2,0,0,0-2.08-1.86,12.35,12.35,0,0,1-5-23.64.62.62,0,0,0,.44-.68c0-1.09,0-2.18,0-3.27,0-.28.08-.36.37-.36q4.81,0,9.63,0c.28,0,.36.08.36.36,0,1.28,0,2.55,0,3.83a.75.75,0,0,0,.45.74,12.18,12.18,0,0,1,5.91,8.55,13.39,13.39,0,0,1,.17,1.79c0,.25,0,.39-.35.39h-9.53c-.31,0-.33-.16-.37-.39a2.09,2.09,0,0,0-4.14.52,2.05,2.05,0,0,0,2,1.87c5.42.22,9.32,2.8,11.46,7.76A12.16,12.16,0,0,1,617.46,64a.67.67,0,0,0-.38.69c0,1.44,0,2.89,0,4.33,0,.34-.08.44-.43.44C615.08,69.44,613.5,69.45,611.91,69.45Z"/><circle class="cls-2" cx="611.31" cy="46.4" r="30.72"/><path class="cls-2" d="M620.49,340.16A6.6,6.6,0,0,0,614,334.4h-1a8.63,8.63,0,1,0-7.05,0h-.55a6.6,6.6,0,0,0-6.53,5.76l-.06.82v8.66h21.77V341C620.53,340.71,620.51,340.43,620.49,340.16Z"/><path class="cls-1" d="M609.67,357.42c2.35,0,8.71,1.71,13.49.05,2.56-.91,4.48-2.78,5.44-2.78s21,1.7,21,1.7V372l-11.38-.22c-1.53.7-3.67,1.61-6.24,2.55A65.2,65.2,0,0,1,617.8,378a55.87,55.87,0,0,1-19.89-1.13,66,66,0,0,1-14.21-5.11c-8.4-4.17-10.13-4.82-10.22-6.26-.15-2.19,2.85-4.42,5.4-5.11,2.28-.63,4.17,0,7.68,1.12a41.05,41.05,0,0,1,7.94,3.7h12.6v-.14a1.94,1.94,0,0,0-.19-.44s0,0,0,0c-.41-1-1.66-3.72-.6-5.47A4.39,4.39,0,0,1,609.67,357.42Z"/><path class="cls-2" d="M606.91,364.6c-.41-1-1.66-3.72-.6-5.47a4.39,4.39,0,0,1,3.36-1.71"/><path class="cls-2" d="M606.91,364.62a.81.81,0,0,0,.19.44,1.94,1.94,0,0,0-.19-.44"/><path class="cls-2" d="M606.91,364.62s0,0,0,0"/><path class="cls-2" d="M607.22,364.26a.52.52,0,0,0-.26.12.37.37,0,0,0-.05.22"/><path class="cls-2" d="M626.61,365.2H594.5a41.05,41.05,0,0,0-7.94-3.7c-3.51-1.15-5.4-1.75-7.68-1.12-2.55.69-5.55,2.92-5.4,5.11.09,1.44,1.82,2.09,10.22,6.26a66,66,0,0,0,14.21,5.11A55.87,55.87,0,0,0,617.8,378,65.2,65.2,0,0,0,632,374.3c2.57-.94,4.71-1.85,6.24-2.55l11.38.22V356.39s-20.09-1.7-21-1.7-2.88,1.87-5.44,2.78c-4.78,1.66-11.14-.05-13.49-.05a2.3,2.3,0,0,0-.65.08"/><path class="cls-2" d="M611.08,502a3.44,3.44,0,0,1,2.71-1.49V483.33a2.74,2.74,0,0,0-2.73-2.73h0a2.74,2.74,0,0,0-2.74,2.73v17.19A3.86,3.86,0,0,1,611.08,502Z"/><path class="cls-2" d="M625.57,511.05l-8.85-5.11a8.46,8.46,0,0,1-.59,1.05,12.84,12.84,0,0,1-2.11,2.35,8.53,8.53,0,0,1-1.45,1.19,2.85,2.85,0,0,0,.87.74l9,5.2a3.14,3.14,0,0,0,4.28-1.14h0A3.15,3.15,0,0,0,625.57,511.05Z"/><path class="cls-3" d="M611.08,502.42a3.49,3.49,0,0,0-3.63-1.34,3.23,3.23,0,0,0-1.52,1.25,3.47,3.47,0,0,0-.62,1.86,4,4,0,0,0,.55,2,8.7,8.7,0,0,0,2,2.47,16.57,16.57,0,0,0,2.9,2.15,9.72,9.72,0,0,0,3-2,12.43,12.43,0,0,0,2.11-2.34,4.08,4.08,0,0,0,.9-2.7,3.36,3.36,0,0,0-.91-1.83,3.09,3.09,0,0,0-1.67-1A3.31,3.31,0,0,0,611.08,502.42Z"/><path class="cls-2" d="M603.87,220.94c-5.26-1.92-5-1.55-6.5-2.28a19.11,19.11,0,0,1-6.16-4.87c-2-2.37-1.91-3.58-2.85-4.59a10.06,10.06,0,0,0-.42-16c1.75-1.15,1.21-2.33,3.56-5.18a19,19,0,0,1,6.16-4.87c1.48-.73,1.24-.35,6.49-2.27,2.9-1.06,4.14-1.6,4.87-2.92a4,4,0,0,0,.33-3.25c-.83-1.86-3.51-2.16-4.55-2.27s-3.18-.14-7.79,1.95a38.55,38.55,0,0,0-7.35,4.17,37.7,37.7,0,0,0-8.74,9c-2.16,2.92-2.26,3.73-2.1,4.27a10.07,10.07,0,0,0-.26,19,12.49,12.49,0,0,0,2.07,3.46,38.26,38.26,0,0,0,8.74,9,38.72,38.72,0,0,0,7.36,4.18c4.6,2.08,6.61,2.07,7.79,1.94s3.72-.41,4.54-2.27a3.91,3.91,0,0,0-.33-3.24C608,222.53,606.76,222,603.87,220.94Z"/><path class="cls-2" d="M618.93,220.94c5.26-1.92,5-1.55,6.49-2.28a19,19,0,0,0,6.17-4.87c2-2.37,1.91-3.58,2.85-4.59a10,10,0,0,1,.42-16c-1.75-1.15-1.21-2.33-3.56-5.18a19.11,19.11,0,0,0-6.16-4.87c-1.48-.73-1.24-.35-6.5-2.27-2.89-1.06-4.13-1.6-4.86-2.92a4,4,0,0,1-.33-3.25c.82-1.86,3.51-2.16,4.54-2.27s3.19-.14,7.79,1.95a38.56,38.56,0,0,1,7.36,4.17,38.09,38.09,0,0,1,8.74,9c2.16,2.92,2.26,3.73,2.1,4.27a10.07,10.07,0,0,1,.26,19,12.63,12.63,0,0,1-2.08,3.46,38,38,0,0,1-8.73,9,38.72,38.72,0,0,1-7.36,4.18c-4.6,2.08-6.61,2.07-7.79,1.94s-3.72-.41-4.54-2.27a4,4,0,0,1,.32-3.24C614.8,222.53,616,222,618.93,220.94Z"/><path class="cls-3" d="M611.45,195.66c-2.27-2.68-5.49-3.88-8.06-3a7.25,7.25,0,0,0-3.38,2.78,7.88,7.88,0,0,0-1.39,4.13,8.79,8.79,0,0,0,1.24,4.52,19.38,19.38,0,0,0,4.48,5.49,37.19,37.19,0,0,0,6.44,4.77,21.79,21.79,0,0,0,6.68-4.53c1.42-1.47,3.2-2.79,4.69-5.2,1.18-1.92,2.27-3.68,2-6a7.32,7.32,0,0,0-2-4.07,7,7,0,0,0-3.72-2.13A7.35,7.35,0,0,0,611.45,195.66Z"/><path class="cls-3" d="M50.29,21.86c-2.84-3.35-6.86-4.85-10.07-3.75A9.13,9.13,0,0,0,36,21.59a9.89,9.89,0,0,0-1.73,5.17,11,11,0,0,0,1.54,5.65c.41.82,1.73,3.28,5.61,6.86a46.59,46.59,0,0,0,8.05,6,27.33,27.33,0,0,0,8.34-5.67c1.77-1.84,4-3.48,5.87-6.5,1.47-2.4,2.83-4.61,2.48-7.51a9.2,9.2,0,0,0-2.51-5.08A8.76,8.76,0,0,0,59,17.82C55.87,17.26,52.5,18.89,50.29,21.86Z"/><circle class="cls-2" cx="611.06" cy="504.39" r="30.72"/><path class="cls-2" d="M644.85,504.39a33.8,33.8,0,1,1-33.8-33.8A33.79,33.79,0,0,1,644.85,504.39Z"/><path class="cls-2" d="M82,29.07C82,13.29,67.8.5,50.23.5S18.41,13.29,18.41,29.07,32.66,57.64,50.23,57.64a34.73,34.73,0,0,0,11.73-2A23.33,23.33,0,0,0,70.56,60a30.4,30.4,0,0,0,7.71.48L74.73,47.29A26.72,26.72,0,0,0,82,29.07Z"/></g></g></svg>