<svg xmlns="http://www.w3.org/2000/svg" viewBox="0 0 1672.42 3872.44"><defs><style>.cls-1{opacity:0.8;}.cls-2{opacity:0.4;}.cls-3{fill:#1b1464;}.cls-4{opacity:0.1;}</style></defs><title>Asset 19</title><g id="Layer_2" data-name="Layer 2"><g id="Layer_1-2" data-name="Layer 1"><g class="cls-1"><g class="cls-2"><path class="cls-3" d="M58.15,1908.86,256.35,2108,2,2105.84l56.15-197m0-2a1.68,1.68,0,0,0-.5.07,2,2,0,0,0-1.43,1.38l-56.14,197A2,2,0,0,0,.4,2107a2,2,0,0,0,1.58.81L256.34,2110h0a2,2,0,0,0,1.42-3.41L59.57,1907.45a2,2,0,0,0-1.42-.59Z"/></g><path class="cls-3" d="M419.87,1924.66l122.76,35.43L440.9,2017.7l-21-93m0-2a2,2,0,0,0-1.95,2.44l21,93a2,2,0,0,0,1.14,1.39,2,2,0,0,0,1.79-.09l101.73-57.61a2,2,0,0,0,1-2,2,2,0,0,0-1.44-1.69l-122.76-35.44a2,2,0,0,0-.55-.07Z"/><g class="cls-2"><path class="cls-3" d="M248,1712.29h0m0,0-9,116.56-88.93-34.52,97.95-82m0-2h0a2,2,0,0,0-1.24.47l-97.94,82a2,2,0,0,0,.56,3.4l88.93,34.51a2,2,0,0,0,.72.14,1.94,1.94,0,0,0,1.07-.31A2,2,0,0,0,241,1829l9-116.46a2.09,2.09,0,0,0,0-.25,2,2,0,0,0-2-2Zm0,4h0Z"/></g><g class="cls-4"><path class="cls-3" d="M46.16,947.36l167.92,99.21-150,81.84L46.16,947.36m0-2a2,2,0,0,0-2,2.2l17.91,181a2,2,0,0,0,1.05,1.57,2,2,0,0,0,.94.23,2,2,0,0,0,1-.24l150-81.84a2,2,0,0,0,.06-3.48L47.18,945.64a2.09,2.09,0,0,0-1-.28Z"/></g><g class="cls-4"><path class="cls-3" d="M1137.8,1604.66h0m0,0-75.27,179.92L960.91,1647.19l176.89-42.53m0-2h-.11a2.57,2.57,0,0,0-.4.06l-176.85,42.53a2,2,0,0,0-1.41,1.26,2,2,0,0,0,.27,1.87l101.62,137.39a2,2,0,0,0,1.61.81h.24a2,2,0,0,0,1.6-1.21l75.24-179.84a2.08,2.08,0,0,0,.19-.86,2,2,0,0,0-2-2Zm0,4Z"/></g><g class="cls-2"><path class="cls-3" d="M505.84,1605l189.89,76.75-219,175.93L505.84,1605m0-2a2,2,0,0,0-1,.28,2,2,0,0,0-1,1.49l-29.12,252.69a2,2,0,0,0,1,2,2,2,0,0,0,1,.24,2,2,0,0,0,1.26-.44l219-175.93a2,2,0,0,0-.51-3.41l-189.89-76.76a2.17,2.17,0,0,0-.75-.14Z"/></g><g class="cls-2"><path class="cls-3" d="M1323.26,1745.89l129.2,75.95-158,89.61,28.85-165.56m0-2a1.94,1.94,0,0,0-.84.19,2,2,0,0,0-1.13,1.47l-28.85,165.55a2,2,0,0,0,2,2.35,2.06,2.06,0,0,0,1-.26l158-89.61a2,2,0,0,0,0-3.46l-129.2-75.95a1.94,1.94,0,0,0-1-.28Z"/></g><path class="cls-3" d="M547.46,2121.87l13.85,127-91.94-72.23,78.09-54.79m0-2a2,2,0,0,0-1.15.36L468.22,2175a2,2,0,0,0-.08,3.21l91.93,72.22a2,2,0,0,0,3.23-1.79l-13.85-127a2,2,0,0,0-1.17-1.6,2,2,0,0,0-.82-.18Z"/><g class="cls-2"><path class="cls-3" d="M769.69,1964.07,837.3,2132.7l-160.19-50.78,92.58-117.85m0-2a2,2,0,0,0-1.57.76l-92.58,117.85a2,2,0,0,0,1,3.15l160.2,50.78a2.08,2.08,0,0,0,.6.09,2,2,0,0,0,1.86-2.74l-67.61-168.64a2,2,0,0,0-1.57-1.23,1.42,1.42,0,0,0-.29,0Z"/></g><g class="cls-2"><path class="cls-3" d="M1005.54,2192l125,162.25-277.92,41L1005.54,2192m0-2h0a2,2,0,0,0-1.59.79L851,2394.05a2,2,0,0,0,1.6,3.2,1.46,1.46,0,0,0,.29,0l277.92-41a2,2,0,0,0,1.56-1.23,2,2,0,0,0-.27-2l-125-162.25a2,2,0,0,0-1.59-.78Z"/></g><path class="cls-3" d="M547.4,2846.56l13.85,127-91.94-72.23,78.09-54.79m0-2a2,2,0,0,0-1.15.36l-78.08,54.8a2,2,0,0,0-.86,1.58,2,2,0,0,0,.77,1.63L560,2975.15a2,2,0,0,0,1.24.43,2,2,0,0,0,2-2.22l-13.85-127a2,2,0,0,0-1.17-1.61,2.11,2.11,0,0,0-.82-.17Z"/><g class="cls-2"><path class="cls-3" d="M1233.21,2523.57l149.77,5.3-96.35,154-53.42-159.34m0-2a2,2,0,0,0-1.9,2.64l53.43,159.33a2,2,0,0,0,1.66,1.35l.23,0a2,2,0,0,0,1.7-.94l96.35-154a2,2,0,0,0-1.63-3l-149.77-5.3Z"/></g><g class="cls-2"><path class="cls-3" d="M1122.79,2652.75l18.67,126.4-94.62-68.67,76-57.73m0-2a2,2,0,0,0-1.21.41l-75.95,57.73a2,2,0,0,0,0,3.21l94.61,68.67a2,2,0,0,0,1.18.38,1.91,1.91,0,0,0,1-.29,2,2,0,0,0,1-2l-18.67-126.4a2,2,0,0,0-1.23-1.56,2,2,0,0,0-.75-.15Z"/></g><g class="cls-4"><path class="cls-3" d="M91.59,2196.63l169.62,65.8-164.36,105-5.26-170.8m0-2a2,2,0,0,0-1.15.36,2,2,0,0,0-.85,1.7l5.26,170.8a2,2,0,0,0,1.06,1.71,2.1,2.1,0,0,0,.94.23,2,2,0,0,0,1.07-.31l164.36-105a2,2,0,0,0,.92-1.88,2,2,0,0,0-1.27-1.67l-169.61-65.8a2,2,0,0,0-.73-.13Z"/></g><g class="cls-2"><path class="cls-3" d="M22.67,2714.21l113.1,59.44L24.52,2809.59l-1.85-95.38m0-2a2,2,0,0,0-1.05.3,2,2,0,0,0-.95,1.74l1.85,95.38a2,2,0,0,0,.84,1.59,2,2,0,0,0,1.16.37,2.23,2.23,0,0,0,.62-.1l111.25-35.93a2,2,0,0,0,.31-3.68L23.6,2712.44a2,2,0,0,0-.93-.23Z"/></g><path class="cls-3" d="M1051.37,1916.69l105.9,49.54-63.66,71-42.24-120.59m0-2a2,2,0,0,0-1.35.52,2,2,0,0,0-.54,2.14l42.24,120.59a2,2,0,0,0,1.49,1.3,1.72,1.72,0,0,0,.39,0,2,2,0,0,0,1.49-.66l63.66-71a2,2,0,0,0-.64-3.15l-105.9-49.54a1.94,1.94,0,0,0-.84-.19Z"/><g class="cls-2"><path class="cls-3" d="M199.36,3330l177.41,102.36L135.46,3576.23l63.9-246.2m0-2a2.07,2.07,0,0,0-.77.15,2,2,0,0,0-1.16,1.35l-63.91,246.2a2,2,0,0,0,.74,2.1,2,2,0,0,0,2.22.12L377.8,3434.11a2,2,0,0,0,1-1.74,2,2,0,0,0-1-1.71L200.36,3328.3a2,2,0,0,0-1-.27Z"/></g><path class="cls-3" d="M467.63,3632.71l67.62,168.64-160.2-50.78,92.58-117.86m0-2a2,2,0,0,0-1.57.77l-92.58,117.85a2,2,0,0,0,1,3.14l160.19,50.78a1.86,1.86,0,0,0,.61.1,2,2,0,0,0,1.85-2.75L469.49,3632a2,2,0,0,0-1.57-1.24l-.29,0Z"/><g class="cls-4"><path class="cls-3" d="M1277.42,2997.42h0m0,0-28,193-132.68-107.69,160.67-85.33m0-2h-.05a2,2,0,0,0-.92.25L1115.81,3081a2,2,0,0,0-1.06,1.57,2,2,0,0,0,.73,1.75L1248.17,3192a2.05,2.05,0,0,0,1.27.45,2,2,0,0,0,2-1.72l28-192.91a1.72,1.72,0,0,0,0-.39,2,2,0,0,0-2-2Zm0,4Z"/></g><g class="cls-2"><path class="cls-3" d="M899.67,3001.65l138.48,150.92L764.78,3217.3l134.89-215.65m0-2h-.19a2,2,0,0,0-1.51.93L763.08,3216.24a2,2,0,0,0,1.7,3.06,2.4,2.4,0,0,0,.46-.05l273.37-64.74a2,2,0,0,0,1-3.3L901.14,3000.3a2,2,0,0,0-1.47-.65Z"/></g><g class="cls-2"><path class="cls-3" d="M1196.21,3275.53l149.77,5.3-96.35,154-53.42-159.33m0-2a2,2,0,0,0-1.9,2.64l53.43,159.33a2,2,0,0,0,1.66,1.35h.23a2,2,0,0,0,1.7-.94l96.35-154a2,2,0,0,0-1.63-3.06l-149.77-5.3Z"/></g><g class="cls-4"><path class="cls-3" d="M139.59,2949.58l169.62,65.8-164.36,105-5.26-170.81m0-2a2,2,0,0,0-2,2.06l5.26,170.81a2,2,0,0,0,1.06,1.71,2.1,2.1,0,0,0,.94.23,2,2,0,0,0,1.07-.32l164.36-105a2,2,0,0,0-.35-3.55l-169.61-65.8a2.06,2.06,0,0,0-.73-.14Z"/></g><g class="cls-4"><path class="cls-3" d="M1670.42,3677.42h0m0,0-28,193-132.68-107.69,160.67-85.33m0-2h-.05a2,2,0,0,0-.92.25L1508.81,3761a2,2,0,0,0-1.06,1.57,2,2,0,0,0,.73,1.75L1641.17,3872a2.05,2.05,0,0,0,1.27.45,2,2,0,0,0,2-1.72l28-192.91a1.72,1.72,0,0,0,0-.39,2,2,0,0,0-2-2Zm0,4Z"/></g><g class="cls-2"><path class="cls-3" d="M1128.67,3620.65l138.48,150.92L993.78,3836.3l134.89-215.65m0-2h-.19a2,2,0,0,0-1.51.93L992.08,3835.24a2,2,0,0,0,1.7,3.06,2.4,2.4,0,0,0,.46-.05l273.37-64.74a2,2,0,0,0,1-3.3L1130.14,3619.3a2,2,0,0,0-1.47-.65Z"/></g><g class="cls-2"><path class="cls-3" d="M786.67,2,932.31,210.54,739.23,278.9,786.67,2m0-2a2.2,2.2,0,0,0-.44.05,2,2,0,0,0-1.53,1.61l-47.44,276.9a2,2,0,0,0,.68,1.87,2.07,2.07,0,0,0,1.29.47,1.93,1.93,0,0,0,.67-.12L933,212.43a2,2,0,0,0,1.23-1.28,2,2,0,0,0-.26-1.76L788.31.85A2,2,0,0,0,786.67,0Z"/></g><path class="cls-3" d="M251,1174.1l91,28.65L249.59,1291l1.4-116.9m0-1a1.06,1.06,0,0,0-.59.19,1,1,0,0,0-.41.8l-1.4,116.9a1,1,0,0,0,.6.93.92.92,0,0,0,.4.08,1,1,0,0,0,.69-.27l92.39-88.26a1,1,0,0,0-.39-1.67l-91-28.65a1,1,0,0,0-.3-.05Z"/><path class="cls-3" d="M594.34,1074.36l35.41,88.58L503,1147.26l91.39-72.9m0-2a2,2,0,0,0-1.24.44l-91.4,72.9a2,2,0,0,0,1,3.55l126.81,15.68h.24a2,2,0,0,0,1.86-2.74l-35.41-88.58a2,2,0,0,0-1.34-1.19,1.81,1.81,0,0,0-.52-.07Z"/></g></g></g></svg>