<svg xmlns="http://www.w3.org/2000/svg" viewBox="0 0 1672.42 3872.44"><defs><style>.cls-1{opacity:0.8;}.cls-2{opacity:0.4;}.cls-3{fill:#1b1464;}.cls-4{opacity:0.1;}</style></defs><title>Asset 21</title><g id="Layer_2" data-name="Layer 2"><g id="Layer_1-2" data-name="Layer 1"><g class="cls-1"><g class="cls-2"><path class="cls-3" d="M1614.27,1908.86l56.15,197L1416.07,2108l198.2-199.09m0-2a2,2,0,0,0-1.41.59l-198.21,199.09a2,2,0,0,0,1.42,3.41h0l254.35-2.11a2,2,0,0,0,1.58-.81,2,2,0,0,0,.32-1.74l-56.14-197a2,2,0,0,0-1.43-1.39,1.68,1.68,0,0,0-.5-.07Z"/></g><path class="cls-3" d="M1252.55,1924.66l-21,93-101.73-57.61,122.76-35.43m0-2a2,2,0,0,0-.55.07l-122.76,35.44a2,2,0,0,0-.43,3.66l101.73,57.61a2,2,0,0,0,1.79.09,2,2,0,0,0,1.14-1.39l21-93a2,2,0,0,0-2-2.44Zm0,4h0Z"/><g class="cls-2"><path class="cls-3" d="M1424.38,1712.29l97.95,82-88.93,34.52-9-116.56m0-2a2,2,0,0,0-2,2.15l9,116.56a2,2,0,0,0,.93,1.54,1.94,1.94,0,0,0,1.07.31,2,2,0,0,0,.72-.14l88.93-34.51a2,2,0,0,0,.56-3.4l-97.95-82a2,2,0,0,0-1.28-.46Z"/></g><g class="cls-4"><path class="cls-3" d="M1626.26,947.36l-17.9,181.05-150-81.84,167.92-99.21m0-2a2.09,2.09,0,0,0-1,.28l-167.92,99.21a2,2,0,0,0,.06,3.48l150,81.84a2,2,0,0,0,1.89,0,2,2,0,0,0,1.06-1.57l17.9-181a2,2,0,0,0-2-2.2Zm0,4h0Z"/></g><g class="cls-4"><path class="cls-3" d="M534.62,1604.66l176.89,42.53L609.89,1784.58l-75.27-179.92m0-2a2,2,0,0,0-1.84,2.77l75.27,179.93a2,2,0,0,0,1.6,1.21h.24a2,2,0,0,0,1.61-.81l101.62-137.39a2,2,0,0,0,.27-1.87,2,2,0,0,0-1.41-1.26l-176.89-42.54a1.88,1.88,0,0,0-.47,0Z"/></g><g class="cls-2"><path class="cls-3" d="M1166.58,1605l29.13,252.68-219-175.93L1166.58,1605m0-2a2.17,2.17,0,0,0-.75.14l-189.89,76.76a2,2,0,0,0-1.23,1.56,2,2,0,0,0,.72,1.85l219,175.93a2,2,0,0,0,1.26.44,2,2,0,0,0,1-.24,2,2,0,0,0,1-2l-29.12-252.69a2,2,0,0,0-1-1.49,2,2,0,0,0-1-.28Z"/></g><g class="cls-2"><path class="cls-3" d="M349.16,1745.89,378,1911.45l-158-89.61,129.2-75.95m0-2a1.94,1.94,0,0,0-1,.28l-129.2,75.95a2,2,0,0,0,0,3.46l158,89.61a2.06,2.06,0,0,0,1,.26,2,2,0,0,0,2-2.35l-28.85-165.55a2,2,0,0,0-1.13-1.47,1.94,1.94,0,0,0-.84-.19Z"/></g><path class="cls-3" d="M1125,2121.87l78.09,54.79-91.94,72.23,13.85-127m0-2a2,2,0,0,0-.82.18,2,2,0,0,0-1.17,1.6l-13.85,127a2,2,0,0,0,3.23,1.79l91.93-72.22a2,2,0,0,0,.77-1.63,2,2,0,0,0-.85-1.58l-78.09-54.8a2,2,0,0,0-1.15-.36Z"/><g class="cls-2"><path class="cls-3" d="M902.73,1964.07l92.58,117.85L835.12,2132.7l67.61-168.63m0-2a1.42,1.42,0,0,0-.29,0,2,2,0,0,0-1.57,1.23L833.26,2132a2,2,0,0,0,1.86,2.74,2.08,2.08,0,0,0,.6-.09l160.2-50.78a2,2,0,0,0,1-3.15L904.3,1962.83a2,2,0,0,0-1.57-.76Z"/></g><g class="cls-2"><path class="cls-3" d="M666.88,2192,819.8,2395.25l-277.92-41,125-162.25m0-2a2,2,0,0,0-1.58.78L540.3,2353a2,2,0,0,0-.27,2,2,2,0,0,0,1.56,1.23l277.92,41a1.46,1.46,0,0,0,.29,0,2,2,0,0,0,1.6-3.2L668.48,2190.79a2,2,0,0,0-1.59-.79Z"/></g><path class="cls-3" d="M1125,2846.56l78.09,54.79-91.94,72.23,13.85-127m0-2a2.11,2.11,0,0,0-.82.17,2,2,0,0,0-1.17,1.61l-13.85,127a2,2,0,0,0,2,2.22,2,2,0,0,0,1.24-.43l91.93-72.22a2,2,0,0,0-.08-3.21l-78.09-54.8a2,2,0,0,0-1.15-.36Z"/><g class="cls-2"><path class="cls-3" d="M439.21,2523.57l-53.42,159.34-96.35-154,149.77-5.3m0-2h-.07l-149.77,5.3a2,2,0,0,0-1.63,3l96.35,154a2,2,0,0,0,1.7.94l.23,0a2,2,0,0,0,1.66-1.35l53.43-159.33a2,2,0,0,0-1.9-2.64Zm0,4h0Z"/></g><g class="cls-2"><path class="cls-3" d="M549.63,2652.75l76,57.73L531,2779.15l18.67-126.4m0-2a2,2,0,0,0-.75.15,2,2,0,0,0-1.23,1.56L529,2778.86a2,2,0,0,0,.94,2,1.94,1.94,0,0,0,1,.29,2,2,0,0,0,1.18-.38l94.61-68.67a2,2,0,0,0,0-3.21l-75.95-57.73a2,2,0,0,0-1.21-.41Z"/></g><g class="cls-4"><path class="cls-3" d="M1580.83,2196.63l-5.26,170.8-164.36-105,169.62-65.8m0-2a2,2,0,0,0-.72.13l-169.62,65.8a2,2,0,0,0-1.27,1.67,2,2,0,0,0,.92,1.88l164.36,105a2,2,0,0,0,1.07.31,2.1,2.1,0,0,0,.94-.23,2,2,0,0,0,1.06-1.71l5.26-170.8a2,2,0,0,0-.85-1.7,2,2,0,0,0-1.15-.36Zm0,4Z"/></g><g class="cls-2"><path class="cls-3" d="M1649.75,2714.21l-1.85,95.38-111.25-35.94,113.1-59.44m0-2a2,2,0,0,0-.93.23l-113.1,59.44a2,2,0,0,0,.31,3.68l111.26,35.93a2.11,2.11,0,0,0,.61.1,2,2,0,0,0,1.16-.37,2,2,0,0,0,.84-1.59l1.85-95.38a2,2,0,0,0-2-2Zm0,4h0Z"/></g><path class="cls-3" d="M621.05,1916.69l-42.24,120.59-63.66-71,105.9-49.54m0-2a2,2,0,0,0-.85.19l-105.9,49.54a2,2,0,0,0-.64,3.15l63.66,71a2,2,0,0,0,1.49.66,1.72,1.72,0,0,0,.39,0,2,2,0,0,0,1.49-1.3l42.24-120.59a2,2,0,0,0-.54-2.14,2,2,0,0,0-1.34-.52Zm0,4Z"/><g class="cls-2"><path class="cls-3" d="M1473.06,3330l63.9,246.2-241.31-143.84L1473.06,3330m0-2a2,2,0,0,0-1,.27l-177.41,102.36a2,2,0,0,0-1,1.71,2,2,0,0,0,1,1.74L1535.94,3578a2,2,0,0,0,2.22-.12,2,2,0,0,0,.74-2.1L1475,3329.53a2,2,0,0,0-1.16-1.35,2.07,2.07,0,0,0-.77-.15Z"/></g><path class="cls-3" d="M1204.79,3632.71l92.58,117.86-160.2,50.78,67.62-168.64m0-2-.29,0a2,2,0,0,0-1.57,1.24l-67.61,168.63a2,2,0,0,0,1.85,2.75,1.81,1.81,0,0,0,.61-.1L1298,3752.47a2,2,0,0,0,1-3.14l-92.58-117.85a2,2,0,0,0-1.57-.77Z"/><g class="cls-4"><path class="cls-3" d="M395,2997.42l160.68,85.33L423,3190.44l-28-193m0-2a2,2,0,0,0-2,2.28l28,193a2,2,0,0,0,2,1.72,2,2,0,0,0,1.26-.45l132.69-107.68a2,2,0,0,0,.73-1.75,2,2,0,0,0-1.06-1.57l-160.67-85.34a2,2,0,0,0-.94-.23Z"/></g><g class="cls-2"><path class="cls-3" d="M772.75,3001.65,907.64,3217.3l-273.37-64.73,138.48-150.92m0-2a2,2,0,0,0-1.47.65L632.8,3151.21a2,2,0,0,0,1,3.3l273.37,64.74a2.49,2.49,0,0,0,.46.05,2,2,0,0,0,1.7-3.06L774.45,3000.59a2,2,0,0,0-1.51-.93Z"/></g><g class="cls-2"><path class="cls-3" d="M476.21,3275.53l-53.42,159.33-96.35-154,149.77-5.3m0-2h-.07l-149.77,5.3a2,2,0,0,0-1.63,3.06l96.35,154a2,2,0,0,0,1.7.94H423a2,2,0,0,0,1.66-1.35l53.43-159.33a2,2,0,0,0-1.9-2.64Zm0,4h0Z"/></g><g class="cls-4"><path class="cls-3" d="M1532.83,2949.58l-5.26,170.81-164.36-105,169.62-65.8m0-2a2,2,0,0,0-.72.14l-169.62,65.8a2,2,0,0,0-.35,3.55l164.36,105a2,2,0,0,0,1.07.32,2.1,2.1,0,0,0,.94-.23,2,2,0,0,0,1.06-1.71l5.26-170.81a2,2,0,0,0-2-2.06Zm0,4Z"/></g><g class="cls-4"><path class="cls-3" d="M2,3677.42l160.68,85.33L30,3870.44l-28-193m0-2a2,2,0,0,0-2,2.28l28,193a2,2,0,0,0,2,1.72,2,2,0,0,0,1.26-.45l132.69-107.68a2,2,0,0,0,.73-1.75,2,2,0,0,0-1.06-1.57L2.94,3675.65a2,2,0,0,0-.94-.23Z"/></g><g class="cls-2"><path class="cls-3" d="M543.75,3620.65,678.64,3836.3l-273.37-64.73,138.48-150.92m0-2a2,2,0,0,0-1.47.65L403.8,3770.21a2,2,0,0,0,1,3.3l273.37,64.74a2.49,2.49,0,0,0,.46.05,2,2,0,0,0,1.7-3.06L545.45,3619.59a2,2,0,0,0-1.51-.93Z"/></g><g class="cls-2"><path class="cls-3" d="M885.75,2l47.44,276.9L740.11,210.54,885.75,2m0-2a2,2,0,0,0-1.64.85L738.47,209.39a2,2,0,0,0-.26,1.76,2,2,0,0,0,1.24,1.28l193.07,68.35a1.93,1.93,0,0,0,.67.12,2.07,2.07,0,0,0,1.29-.47,2,2,0,0,0,.68-1.87L887.72,1.66A2,2,0,0,0,886.19.05a2.2,2.2,0,0,0-.44,0Z"/></g><path class="cls-3" d="M1421.43,1174.1l1.4,116.9-92.39-88.25,91-28.65m0-1a1,1,0,0,0-.3.05l-91,28.65a1,1,0,0,0-.39,1.67l92.39,88.26a1,1,0,0,0,.69.27.92.92,0,0,0,.4-.08,1,1,0,0,0,.6-.93l-1.4-116.9a1,1,0,0,0-.41-.8,1.06,1.06,0,0,0-.59-.19Z"/><path class="cls-3" d="M1078.08,1074.36l91.39,72.9-126.8,15.68,35.41-88.58m0-2a1.86,1.86,0,0,0-.52.07,2,2,0,0,0-1.34,1.19l-35.41,88.58a2,2,0,0,0,1.86,2.74h.24l126.81-15.68a2,2,0,0,0,1-3.55l-91.4-72.9a2,2,0,0,0-1.24-.44Z"/></g></g></g></svg>