<svg xmlns="http://www.w3.org/2000/svg" viewBox="0 0 1581.25 1039.34"><defs><style>.cls-1,.cls-2,.cls-3{fill:none;stroke:#1b1464;stroke-miterlimit:10;}.cls-1{opacity:0.1;}.cls-2{opacity:0.4;}</style></defs><title>Asset 12</title><g id="Layer_2" data-name="Layer 2"><g id="Layer_1-2" data-name="Layer 1"><polygon class="cls-1" points="179.28 851.9 197.19 1032.94 347.2 951.1 179.28 851.9"/><polygon class="cls-2" points="467.49 891.13 405.7 1027.66 573.38 1038.77 467.49 891.13"/><polygon class="cls-2" points="667.94 899.42 624.18 984.18 739.12 1005.53 667.94 899.42"/><polygon class="cls-1" points="1580.18 208.32 1446.8 84.6 1388.69 245.3 1580.18 208.32"/><polygon class="cls-3" points="1295.92 145.44 1295.31 50.05 1183.6 84.53 1295.92 145.44"/><polygon class="cls-2" points="1335.03 366.19 1290.83 222.98 1157.89 325.79 1335.03 366.19"/><polygon class="cls-2" points="1132.54 161.13 1053.07 108.37 1019.29 220.29 1132.54 161.13"/><polygon class="cls-1" points="851.46 899.34 835.83 718.08 684.8 798.03 851.46 899.34"/><polygon class="cls-2" points="563.82 851.49 627.33 715.74 459.8 702.54 563.82 851.49"/><polygon class="cls-1" points="734.02 429.03 718.39 247.77 567.36 327.72 734.02 429.03"/><polygon class="cls-3" points="565.77 191.43 629.42 120.38 523.53 70.84 565.77 191.43"/><polygon class="cls-2" points="446.38 381.18 509.89 245.43 342.36 232.22 446.38 381.18"/><polygon class="cls-2" points="434.24 93.26 410.85 0.78 310.62 60.96 434.24 93.26"/><polygon class="cls-2" points="106.12 509.68 275.17 625.33 357.75 384.75 106.12 509.68"/><polygon class="cls-3" points="0.89 438.98 95.81 448.51 73.39 333.77 0.89 438.98"/><polygon class="cls-1" points="1031.46 638.19 1188.26 730.46 1210.59 561.04 1031.46 638.19"/><polygon class="cls-3" points="1356.73 912.81 1420.39 841.76 1314.49 792.23 1356.73 912.81"/><polygon class="cls-2" points="1274.62 623.7 1417.86 667.8 1407.75 500.05 1274.62 623.7"/><polygon class="cls-3" points="1045.93 856.41 1045.32 761.01 933.61 795.5 1045.93 856.41"/></g></g></svg>