<svg xmlns="http://www.w3.org/2000/svg" viewBox="0 0 1399.26 760.52"><defs><style>.cls-1,.cls-2,.cls-3{fill:none;stroke:#1b1464;stroke-miterlimit:10;}.cls-1{opacity:0.4;}.cls-2{opacity:0.1;}</style></defs><title>Asset 17</title><g id="Layer_2" data-name="Layer 2"><g id="Layer_1-2" data-name="Layer 1"><polygon class="cls-1" points="1201.89 150.21 1157.69 7.01 1024.75 109.82 1201.89 150.21"/><polygon class="cls-2" points="773.32 732.37 757.69 551.11 606.66 631.06 773.32 732.37"/><polygon class="cls-1" points="343.69 759.52 407.19 623.77 239.66 610.56 343.69 759.52"/><polygon class="cls-2" points="777.88 182.05 762.25 0.8 611.22 80.75 777.88 182.05"/><polygon class="cls-1" points="289.25 166.21 352.75 30.45 185.22 17.25 289.25 166.21"/><polygon class="cls-1" points="0.99 421.7 170.03 537.35 252.61 296.77 0.99 421.7"/><polygon class="cls-1" points="1255.49 433.72 1398.72 477.83 1388.61 310.08 1255.49 433.72"/><polygon class="cls-3" points="967.79 689.43 967.18 594.04 855.47 628.52 967.79 689.43"/></g></g></svg>