<svg xmlns="http://www.w3.org/2000/svg" viewBox="0 0 1628.26 3872.44"><defs><style>.cls-1{opacity:0.8;}.cls-2{opacity:0.1;}.cls-3{fill:#1b1464;}.cls-4{opacity:0.4;}</style></defs><title>Asset 26</title><g id="Layer_2" data-name="Layer 2"><g id="Layer_1-2" data-name="Layer 1"><g class="cls-1"><g class="cls-2"><path class="cls-3" d="M1626.26,947.36l-17.9,181.05-150-81.84,167.92-99.21m0-2a2.09,2.09,0,0,0-1,.28l-167.92,99.21a2,2,0,0,0,.06,3.48l150,81.84a2,2,0,0,0,1.89,0,2,2,0,0,0,1.06-1.57l17.9-181a2,2,0,0,0-2-2.2Zm0,4h0Z"/></g><g class="cls-4"><path class="cls-3" d="M1473.06,3330l63.9,246.2-241.31-143.84L1473.06,3330m0-2a2,2,0,0,0-1,.27l-177.41,102.36a2,2,0,0,0-1,1.71,2,2,0,0,0,1,1.74L1535.94,3578a2,2,0,0,0,2.22-.12,2,2,0,0,0,.74-2.1L1475,3329.53a2,2,0,0,0-1.16-1.35,2.07,2.07,0,0,0-.77-.15Z"/></g><path class="cls-3" d="M1204.79,3632.71l92.58,117.86-160.2,50.78,67.62-168.64m0-2-.29,0a2,2,0,0,0-1.57,1.24l-67.61,168.63a2,2,0,0,0,1.85,2.75,1.81,1.81,0,0,0,.61-.1L1298,3752.47a2,2,0,0,0,1-3.14l-92.58-117.85a2,2,0,0,0-1.57-.77Z"/><g class="cls-4"><path class="cls-3" d="M476.21,3275.53l-53.42,159.33-96.35-154,149.77-5.3m0-2h-.07l-149.77,5.3a2,2,0,0,0-1.63,3.06l96.35,154a2,2,0,0,0,1.7.94H423a2,2,0,0,0,1.66-1.35l53.43-159.33a2,2,0,0,0-1.9-2.64Zm0,4h0Z"/></g><g class="cls-2"><path class="cls-3" d="M2,3677.42l160.68,85.33L30,3870.44l-28-193m0-2a2,2,0,0,0-2,2.28l28,193a2,2,0,0,0,2,1.72,2,2,0,0,0,1.26-.45l132.69-107.68a2,2,0,0,0,.73-1.75,2,2,0,0,0-1.06-1.57L2.94,3675.65a2,2,0,0,0-.94-.23Z"/></g><g class="cls-4"><path class="cls-3" d="M543.75,3620.65,678.64,3836.3l-273.37-64.73,138.48-150.92m0-2a2,2,0,0,0-1.47.65L403.8,3770.21a2,2,0,0,0,1,3.3l273.37,64.74a2.49,2.49,0,0,0,.46.05,2,2,0,0,0,1.7-3.06L545.45,3619.59a2,2,0,0,0-1.51-.93Z"/></g><g class="cls-4"><path class="cls-3" d="M885.75,2l47.44,276.9L740.11,210.54,885.75,2m0-2a2,2,0,0,0-1.64.85L738.47,209.39a2,2,0,0,0-.26,1.76,2,2,0,0,0,1.24,1.28l193.07,68.35a1.93,1.93,0,0,0,.67.12,2.07,2.07,0,0,0,1.29-.47,2,2,0,0,0,.68-1.87L887.72,1.66A2,2,0,0,0,886.19.05a2.2,2.2,0,0,0-.44,0Z"/></g><path class="cls-3" d="M1421.43,1174.1l1.4,116.9-92.39-88.25,91-28.65m0-1a1,1,0,0,0-.3.05l-91,28.65a1,1,0,0,0-.39,1.67l92.39,88.26a1,1,0,0,0,.69.27.92.92,0,0,0,.4-.08,1,1,0,0,0,.6-.93l-1.4-116.9a1,1,0,0,0-.41-.8,1.06,1.06,0,0,0-.59-.19Z"/><path class="cls-3" d="M1078.08,1074.36l91.39,72.9-126.8,15.68,35.41-88.58m0-2a1.86,1.86,0,0,0-.52.07,2,2,0,0,0-1.34,1.19l-35.41,88.58a2,2,0,0,0,1.86,2.74h.24l126.81-15.68a2,2,0,0,0,1-3.55l-91.4-72.9a2,2,0,0,0-1.24-.44Z"/></g></g></g></svg>